<?xml version="1.0" encoding="utf-8"?>
<!-- Generator: Adobe Illustrator 22.1.0, SVG Export Plug-In . SVG Version: 6.00 Build 0)  -->
<svg version="1.0" id="Camada_1" xmlns="http://www.w3.org/2000/svg" xmlns:xlink="http://www.w3.org/1999/xlink" x="0px" y="0px"
	 viewBox="0 0 7086.6 6803.1" style="enable-background:new 0 0 7086.6 6803.1;" xml:space="preserve">
<style type="text/css">
	.st0{fill:#CCCCCC;}
</style>
<g>
	<g>
		<g>
			<g>
				<path class="st0" d="M3541.3,5875.2c-14.6,0-29.3-0.5-44.1-1.8l-197.1-10c-53.8-6.5-89.7-12.8-90.1-12.8l-4.2-0.7l-2.3-3.7
					c-0.3-0.6-37.7-62.7-70.1-123.5c-16.6-30.7-32.3-61.2-43.7-84c-0.1-0.2-11.4-22.8-16.6-35.5l-101.9-26.4
					c-11.4-3.2-23.4-6.1-35.9-9.2c-22.5-5.5-47.9-11.7-73.4-20.3l-183.1-67c-13.5-5.2-26.1-11.4-38.3-17.5
					c-6.8-3.3-13.4-6.6-20.1-9.7l-101.6-49c-34.1-15.7-57-27.7-71.7-37.8l-25.4-15.5l9.7-16.1l25.9,15.8
					c14.4,9.8,36.2,21.3,69.5,36.6l101.7,49c6.6,3,13.4,6.4,20.3,9.8c11.8,5.9,24,11.9,36.5,16.7l182.7,66.9
					c24.6,8.2,48.5,14.1,71.7,19.8c12.7,3.1,24.9,6.1,36.3,9.3l113.3,29.3v5.4c1.9,4.6,7.9,18.9,17.1,36.8
					c11.4,22.8,26.9,53.2,43.4,83.7c27.7,51.8,59.1,104.7,67.6,118.9c10.8,1.8,42.1,6.8,84.3,11.9l196.8,10
					c35.6,3.1,71.2,1.5,104.4-0.7l178.3-9.1c3.6-3.3,10.2-10.2,18.7-20l46.1-53.1l65.6-79.2l84.1-12.8
					c29.8-5.6,66.1-15.1,104.5-25.2c22.3-5.9,45.4-12,68.6-17.7c49.3-10.4,95.6-27.6,136.4-42.8c11.6-4.4,22.7-8.5,33-12.1
					l79.8-29.1l26.9,10.4c10.5,4.1,23.5,9.1,35.9,12.6l57.3,17l84-40.4c8.8-4.6,18.7-9.2,29.1-14c19.1-8.9,38.9-18.1,58.3-30.6
					l97.6-59.2c11.4-7.3,23.3-14.4,35.2-21.4c21.6-12.8,41.9-24.9,60.4-38.8l159.7-119.5l29.8,1.4l55.9-0.5l80.2-2.3l94.4-86.3
					l90.2-99c8.9-10.2,18.3-20.4,27.9-30.8c24.6-26.9,50.3-54.7,71.6-85.6l20.2-26.9c57.2-75.9,111.2-147.5,144.8-209.2l66.7-110
					c-0.7-5-2.6-15.7-6.3-30.3l-19-76.1c-13.9-53.8-29.2-106-29.3-106.5l-1.1-3.5l33.5-69.6c10.4-25.6,22.2-58,34.6-92.3
					c6.9-19.1,14-38.8,21.4-58.5c3.4-9.8,7.2-19.6,10.8-29.5c6.7-17.8,13-34.6,17.9-51.3l36-140.3l-46.7-86l-58.5-88.7l9.5-62.3
					c1.2-11.4,3.5-24.5,5.9-38.4c4.6-27.5,10-58.5,9.9-89.8l9.7-190.5l18.7,0.9l-9.7,190c0.1,32.3-5.3,64.3-10.1,92.5
					c-2.4,13.5-4.5,26.2-5.8,37.7l-8.5,55.5l55.1,83.3l50.6,93.2l-38,147.7c-5.3,17.7-12,35.6-18.5,52.9
					c-3.6,9.7-7.3,19.5-10.7,29.3c-7.3,19.8-14.5,39.4-21.4,58.5c-12.6,34.5-24.3,67.1-35,93.5l-30.5,63.6
					c3.6,12.6,16.6,57.5,28.5,103.8l19,76.1c5.4,21.6,7,35.3,7.2,35.8l0.4,3.2l-69.9,115.2c-34,62.4-88.5,134.7-146.2,211.1
					l-20,26.5c-21.8,31.7-47.9,60-72.9,87.4c-9.4,10.3-18.7,20.4-27.7,30.6l-90.9,99.7l-100.2,91.7l-144,2.9l-23.5-1.2l-154.4,115.5
					c-19.2,14.4-41,27.3-62,39.8c-11.6,6.9-23.4,13.8-34.9,21.2l-97.4,59.2c-20.3,13.1-41.6,23-60.4,31.7
					c-10.1,4.6-19.7,9.1-28.5,13.7l-90.9,43.8l-64.1-19.1c-13.1-3.7-26.6-8.9-37.4-13.1l-20.3-7.8l-73.2,26.7
					c-10.4,3.7-21.3,7.7-32.8,12c-41.6,15.5-88.4,32.9-138.7,43.5c-22.8,5.6-45.8,11.7-68,17.5c-38.7,10.2-75.4,19.9-106.1,25.6
					l-77.3,11.8l-61.3,73.9l-46.2,53.2c-13,15.1-21.9,23.5-22.4,23.9l-2.5,2.3l-185.2,9.4
					C3583.8,5874.1,3562.8,5875.2,3541.3,5875.2z"/>
			</g>
		</g>
		<g>
			<g>
				<path class="st0" d="M2421.8,5350.9l-102.9-62.4c-21.1-11.9-41-25.4-58.8-39.7L2121.3,5145c-5.1-3.5-8.6-6.3-10.9-8.6l-96.1,2.3
					l-107.4-0.6l-17.7-16c-3.3-3.3-6.9-6.5-11-10.1c-8.1-7.1-18.2-16-28.3-27.2l-108.7-119.7c-30.1-30.4-55.4-64.7-77.6-94.9
					c-8.4-11.4-16.3-22.2-23.8-31.8l-42-56.3l-30.8-6.8c-19.5-3.9-44.5-10.7-74.2-20.2c-51.9-15.8-106-34.2-106.6-34.4
					c-1.5,0-6-0.6-72.4-117.2l-58.9-122c-4-8.6-8.2-17.1-12.3-25.8c-18.1-37.2-36.8-75.6-50-116.9l-65.5-179l-58.5-227.2l13.5-26.4
					l30.4-51.4l42.6-68.9l-14-92.4c-6-30.2-7.8-67.4-9.1-99.8l-5.7-113.6c-5.3-56.4-2.1-112.6,0.9-162.1c1.1-18.3,2-35.6,2.5-51.5
					l4.9-95.3c-1.1-4.4,1.3-7.8,17.8-22l80.8-68.6l11.8-77c1.5-8.6,2.8-17.4,4.1-26.7c2.3-17.2,5.1-36.8,10.2-56.5l30-117.3
					c14.2-55.8,27.5-108.6,44.6-148.5l26.6-72.7l-34.8-90.5c-6.8-17.1-11.4-33.6-15.5-48.1c-1.7-6.3-3.5-12.3-5.2-17.8l-9.6-33.7
					l40.6-84.2c4.1-8.3,8.2-16.9,12.5-26c8.6-17.9,17.8-37.2,28.3-57l110-181.1c11.5-19.3,24.7-36.7,36.4-51.9
					c6.2-8.2,12.3-15.9,17.5-23.5l56.8-75.9l48.7-1c6.8,0,14.6-0.1,22.4-0.1c22.2-0.3,47.4-0.5,74.7,1.3
					c60.3,3.2,118.6,8.7,136,10.4l70.7-78l20.3-18.9c45.4-42.1,101.8-94.4,160.2-143.8l151.5-113.4c10.5-7.5,20.8-13.6,30.7-19.5
					c5.2-3.1,10.3-6.1,15.1-9.1l94.1-57.2l9.7,16l-93.9,57.1c-4.9,3-10,6.1-15.3,9.3c-9.7,5.6-19.5,11.5-29.3,18.5L2142,1676.7
					c-57.7,48.8-113.9,100.9-159,142.8l-19.8,18.4l-76.1,84h-4.2c-8.2-0.8-73.2-7.3-140.8-10.8c-26.7-1.9-51.4-1.6-73.4-1.3
					c-7.9,0-15.5,0-22.4,0.1l-39.3,0.8l-51.1,68.3c-5.3,7.6-11.4,15.6-17.8,23.9c-12,15.5-24.3,31.7-35.2,50.1l-109.8,180.7
					c-10.1,19.1-19.2,38.1-27.6,55.8c-4.4,9.1-8.5,17.9-12.6,26.2l-37.3,77.7l7.4,26.6c1.8,5.4,3.5,11.6,5.3,18.1
					c4,14,8.4,30,14.9,46.3l37.3,97.2l-29.2,79.8c-16.6,39.1-29.9,91.1-43.7,146.2l-30.1,117.4c-4.9,18.7-7.4,36.8-9.8,54.4
					c-1.4,9.5-2.7,18.6-4.2,27.2l-12.7,83.8l-86.2,72.9c-5.4,4.6-9.3,8.4-11.5,10.6l-4.7,93.3c-0.5,15.8-1.5,33.3-2.5,51.8
					c-3,48.8-6.2,104.2-0.9,159.6l5.7,114.1c1.2,31.8,3,68.1,8.8,97.4l15.2,99.6l-76.2,125.4l-9.9,19.5l56.4,219.4l65.2,178.5
					c13.1,40.3,31.5,78.1,49.3,114.7c4.2,8.7,8.4,17.3,12.4,25.9l58.5,121.3c33.5,58.9,58.8,99.4,65.1,109.4
					c15.1,5,59.6,19.9,102.8,33.1c28.7,9.2,53.8,15.9,72.4,19.7l37.8,8.4l46.1,61.7c7.5,9.6,15.5,20.5,24,32.1
					c21.8,29.7,46.6,63.4,76,93.1l109.1,120c9.4,10.4,18.7,18.5,26.8,25.7c4.4,3.9,8.3,7.3,11.6,10.5l12.1,10.9l100,0.6l109.5-2.6
					v5.8c1.7,1.6,4.6,3.9,8.5,6.6l139.5,104.2c17.3,13.9,36.3,26.8,56.9,38.3l103,62.6L2421.8,5350.9z"/>
			</g>
		</g>
		<g>
			<g>
				<path class="st0" d="M5772,3407.4l-11.3-222.6c-3-24.7-7.2-51-11.3-77.7c-2.6-16.3-5.2-32.7-7.6-49.1c-2.8-15.3-5-31.2-7.1-46.9
					c-3.8-27.9-7.3-54.3-14.7-78.9l-47.9-186.7l-11.7-32.1l2.8-4c0.4-0.5,39.1-55.8,75.8-114.5c30.8-48.5,60.3-99.7,71-118.5
					l-6.9-19.1c-3.6-8.8-9.2-20.2-15.7-33.5c-3.7-7.6-7.7-15.8-11.8-24.6c-8.2-16.2-16.9-34.6-26.1-54.4
					c-18.1-38-38.5-81-61.2-122.4l-102.5-168.7c-8.6-15.4-17.9-27.4-26.1-37.9c-4.4-5.5-8.1-10.5-11.2-15l-12.4-16.6l-95.2-20.7
					l-99.9-18.8l-2.3-3.6c0,0-4.1-6.4-12.9-15.7l-40-43.9c-11.6-12.3-24.5-26.7-38.2-42c-24.8-28-53.1-59.6-83.5-88.4l-132.5-120.5
					c-11.4-11.2-22.5-19.2-32.3-26.3c-5.2-3.6-9.7-7-13.6-10.1l-20.5-15.3l-12.8-65.8l-12.6-59.6l-18.5-13.8
					c-3.3-2.3-7-5.2-10.9-8.2c-12.1-9.2-27.1-20.6-45.8-31c-17.1-10.3-35.9-21.7-55.9-33.9c-38.7-23.7-82.6-50.5-126.8-76.1
					l-191.5-92.2c-16.8-7.8-32.2-13.3-45.8-18c-7.1-2.5-13.6-4.8-19-7l-28.1-10.2l-42.1-76.1l-41.5-71c-4.5-1.8-14.7-5.6-30.3-10.1
					L4061,948.3c-31.2-6.2-64.1-11.1-98.8-16.3c-17.6-2.6-35.2-5.3-52.8-8.1c-83-16.1-168.6-20-237.4-23.1
					c-17.4-0.8-34-1.5-49.5-2.4c-64.2-5-110.6-2.7-126.8-1.6c-9.6,8.7-46.2,42-80.3,74.9c-33.7,32.2-65.7,64.6-75.1,74.1v5.4
					l-9.4,0.1c-7.3,0.1-33.9,1.1-71.2,8l-160.2,24.4c-24.7,2.7-48.5,9-71.4,15l-152.7,39.3c-8.5,12.9-30.5,47.7-49.8,85.4
					l-56.7,109.8l-4.6-12.4c-46.9,15.2-312.4,135.5-329.8,154.5l-5.9-5.4l-10.2,5.4l0.8-11c11.5-16.7,293.7-148.8,344.8-162.6
					l44.8-86.8c19.9-39.3,42.9-75.3,51.2-87.9v-4.5l163.2-41.9c23.6-6.2,48.1-12.6,73.7-15.4l159.5-24.4c33.9-6.2,59.6-7.8,70.4-8.1
					c9.3-9.5,41.6-42.1,75.5-74.5c39.7-38.2,82.7-77,83.1-77.4l6.4-5.7l3.3,3.1c17.8-1.2,64.7-3.3,128.6,1.6
					c15.3,0.9,31.7,1.6,49.1,2.4c69.4,3.1,155.8,7,239.7,23.3c17.3,2.8,34.9,5.4,52.4,8c35,5.2,68.1,10.1,100.2,16.6l223.5,57.5
					c34.9,10.2,40.2,13.2,41.1,17.9l42,71.9l38.9,70.2l21.7,7.9c5.6,2.3,11.7,4.4,18.5,6.8c13.4,4.7,29.9,10.6,47.7,18.8l192.2,92.6
					c45,26.1,89,53,127.8,76.7c20,12.2,38.6,23.6,55.4,33.7c19.6,11,35.2,22.8,47.7,32.3c3.9,2.9,7.4,5.6,10.7,8l24.3,18.2
					l25.5,125.5l15,11.3c3.9,3.2,8.1,6.2,12.9,9.6c9.9,7.1,22.2,15.9,34.4,28l132.4,120.2c31.2,29.5,59.6,61.5,84.8,89.7
					c13.5,15.2,26.2,29.3,38,41.7l40,43.9c6.2,6.4,10.3,11.8,12.8,15.1l92.3,17.5l102.3,22.2l16.9,22.6c3.1,4.6,6.7,9.2,10.7,14.3
					c8.1,10.6,18.4,23.7,27.5,40.1l102.5,168.7c23.2,42.2,43.8,85.6,61.9,123.8c9.2,19.6,18,37.9,26.1,54.2
					c4.3,8.9,8.1,17.1,11.9,24.6c6.6,13.7,12.3,25.5,16.2,34.9l10.2,27.7l-2.2,3.8c-9.2,16.2-40.7,71.1-73.6,123
					c-31.3,49.9-64,97.5-73.6,111.3l8.7,23.8l48,187.1c7.6,25.7,11.5,54,15.2,81.4c2.1,15.4,4.2,31,7,46.5c2.4,16.7,5,33,7.6,49.2
					c4.3,26.9,8.4,53.5,11.5,79.1l11.3,223.2L5772,3407.4z"/>
			</g>
		</g>
	</g>
	<g>
		<g>
			<g>
				<path class="st0" d="M3544.8,5557.1c-227.7-5.6-436.4-36.5-621.6-91.9c-32.3-9.2-64-21.1-94.6-32.6
					c-16.9-6.4-33.9-12.7-50.8-18.7l-71.8-26.4l-70.5-33.9c-16.3-8.3-32.5-15.9-48.5-23.4c-29.1-13.6-59.1-27.7-87.5-44.6
					l-126.4-76.8c-185.9-126.5-326.8-248.1-431.9-372.3c-44.7-45-82.4-96.2-118.9-145.7c-14.7-20-29.3-39.8-44.2-59
					c-17.9-22.6-32.1-46.9-45.8-70.3c-7.3-12.3-14.4-24.6-22-36.4c-7.9-13.4-15.5-25.7-23-37.8c-13.8-22.3-27.5-44.4-39.3-67
					c-169.3-323.6-218.2-593-232.3-724.9l-9.7-62.7c-1.5-14.9-2-27.9-2.6-40.3l-9.4-184.1l53.7-2.8l9.3,184.5
					c0.6,11.5,1,23.5,2.3,36l9.6,62.4c13.8,129.3,61.5,391.2,226.6,706.8c11.3,21.5,24.3,42.5,37.5,63.7c7.7,12.5,15.4,25,23,37.8
					c7.5,11.5,15.1,24.4,22.7,37.4c13.4,22.9,26.1,44.5,41.7,64.3c15.4,19.8,30.3,40,45.3,60.4c35.2,47.9,71.7,97.5,115.1,141.2
					c103.4,122,240.7,240.4,421.3,363.4l125.1,75.9c25.9,15.5,53.4,28.4,82.5,42c16.6,7.8,33.3,15.6,49.6,23.9l67.6,32.7l69,25.2
					c16.9,5.9,34.2,12.4,51.6,18.9c29.6,11.2,60.3,22.7,90.8,31.4c181,54.1,384.9,84.3,606.5,89.8c220.4-5.5,424.3-35.6,604.9-89.7
					c30.9-8.8,61.5-20.3,91.2-31.5c17.4-6.5,34.7-13,52.1-19.1l70.9-26.1l65.7-31.9c16-8.1,32.5-15.9,49.1-23.7
					c29.1-13.7,56.7-26.6,82.9-42.1l126-76.5c179.4-122.3,316.7-240.6,418.7-361.1c44.9-45.3,81.4-94.9,116.7-142.8
					c15-20.4,29.9-40.6,45.1-60.2c15.8-20,28.4-41.6,41.9-64.5c7.6-13,15.2-25.9,23.2-38.4c7-11.9,14.7-24.4,22.4-36.9
					c13.1-21.2,26.1-42.2,37.5-63.8c165.1-315.6,212.7-577.5,226.4-705.6l10-65.2c0.9-10.9,1.5-23,2-34.4l9.3-184.5l53.7,2.8
					l-9.4,184.1c-0.5,12.4-1,25.4-2.3,38.8l-10,65.4c-13.9,130.7-62.8,400.1-232.1,723.7c-11.9,22.6-25.6,44.7-39.4,67
					c-7.5,12.2-15,24.4-22.4,36.9c-8.2,12.8-15.4,25-22.6,37.3c-13.8,23.4-28,47.7-46,70.4c-14.7,19.1-29.3,38.9-44.1,58.9
					c-36.5,49.5-74.1,100.7-120.4,147.3c-103.7,122.6-244.4,244.2-429.1,370l-127.5,77.4c-28.6,17.1-58.7,31.1-87.7,44.8
					c-16.1,7.5-32.2,15.1-48.1,23.2l-68.5,33.1l-73.7,27.3c-17.5,6.1-34.4,12.4-51.3,18.8c-30.7,11.6-62.4,23.5-95,32.8
					C3979.9,5520.6,3771.2,5551.5,3544.8,5557.1z"/>
			</g>
			<g>
				<path class="st0" d="M3544.2,5714.8l-3.8-0.1c-164.5-5.8-378.2-19.6-572.7-75.4c-13.1-3.6-27.3-7.1-41.3-10.6
					c-29.2-7.2-59.4-14.7-90.2-25.6l-117.9-43.2c-57.5-18.1-112-45-160.2-68.8c-18.8-9.3-37.3-18.4-55.5-26.7l-48.9-23.5
					c-15-7.8-26.2-14.6-37.3-21.4L2229,5302.1l-140.4-105l128.6-171.9l177.7,129.8l134.3,81.8c6.8,4.2,13.7,8.6,21,12.4l43.4,20.8
					c18.2,8.2,38.6,18.4,59.6,28.7c43.2,21.4,88,43.5,134.3,58.2l121.4,44.3c19.8,7,43.6,12.9,68.9,19.2
					c16.1,3.9,32.1,7.9,48.2,12.4c171.5,49.2,366.4,61.9,518.1,67.3c151.6-5.4,346.6-18.1,517.2-67.1c17.1-4.7,33.1-8.7,49-12.6
					c25.4-6.2,49.3-12.2,70.2-19.6l115.8-42.4c50.8-16.2,95.5-38.3,138.9-59.7c20.9-10.4,41.4-20.4,61.7-29.7l44.7-21.5
					c3.9-2.2,10.9-6.6,17.7-10.8l157.5-96l154.3-115.4l128.6,171.9l-166.6,124l-160.9,98.1c-11.2,6.9-22.4,13.8-34.4,20l-50,24.2
					c-20.3,9.3-38.7,18.4-57.7,27.7c-48,23.8-102.6,50.7-164.5,70.3l-112.5,41.3c-31.9,11.3-62.1,18.8-91.4,26
					c-14,3.5-28.1,6.9-42.1,10.8c-193.5,55.6-407.3,69.4-571.8,75.1L3544.2,5714.8z"/>
			</g>
		</g>
		<g>
			<g>
				<path class="st0" d="M5640.7,3408.3l-9.3-184.5c-0.5-11.5-1.1-23.5-2.3-36l-9.7-62.4c-13.8-129.3-61.4-391.2-226.5-706.9
					c-11.3-21.5-24.3-42.5-37.5-63.7c-7.7-12.5-15.5-25-23-37.8c-7.5-11.5-15.1-24.4-22.7-37.4c-13.5-22.8-26.1-44.5-41.8-64.3
					c-15.3-19.8-30.2-40-45.3-60.4c-35.3-47.9-71.8-97.5-115.2-141.2c-103.4-122.1-240.7-240.5-421.2-363.5l-125.1-75.9
					c-25.9-15.4-53.5-28.3-82.7-42c-16.6-7.7-33.1-15.6-49.5-23.8l-67.6-32.7l-68.9-25.2c-16.9-5.9-34.2-12.4-51.6-18.9
					c-29.6-11.2-60.2-22.7-90.7-31.4c-181-54.1-384.9-84.3-606.6-89.8c-220.2,5.4-424.2,35.6-604.9,89.7
					c-30.8,8.8-61.5,20.4-91.1,31.5c-17.4,6.5-34.6,13-52.2,19l-70.8,26.2l-65.7,31.9c-15.9,8.1-32.5,15.9-49.2,23.6
					c-29.1,13.7-56.7,26.6-82.7,42.1l-126.1,76.6c-179.4,122.3-316.7,240.6-418.6,361.1c-44.9,45.3-81.4,94.9-116.6,142.9
					c-15,20.4-29.9,40.6-45.2,60.3c-15.8,20-28.5,41.6-41.8,64.4c-7.6,13-15.3,25.9-23.3,38.4c-7,11.9-14.7,24.4-22.4,36.9
					c-13.2,21.2-26.2,42.3-37.6,63.8c-165.1,315.6-212.8,577.5-226.4,705.6l-10,65.1c-1,11-1.5,23-2,34.5l-9.3,184.5l-53.7-2.8
					l9.4-184.1c0.6-12.4,1.2-25.4,2.5-38.8l10-65.4c13.9-130.6,62.8-400.1,232.1-723.6c11.9-22.7,25.6-44.8,39.4-67.1
					c7.5-12.1,15.1-24.4,22.4-36.9c8.3-12.8,15.4-25,22.7-37.3c13.7-23.5,28-47.7,46-70.4c14.8-19.1,29.4-38.9,44.1-58.9
					c36.5-49.5,74.2-100.8,120.4-147.3c103.6-122.6,244.5-244.2,429.2-369.9l127.4-77.5c28.6-17,58.6-31.1,87.7-44.7
					c16.1-7.5,32.2-15.1,48.1-23.1l68.6-33.1l73.7-27.3c17.5-6.1,34.4-12.4,51.4-18.8c30.6-11.5,62.3-23.4,94.9-32.7
					c184.9-55.3,393.6-86.2,619.9-91.8c227.7,5.6,436.4,36.5,621.6,91.9c32.3,9.2,64.1,21.1,94.7,32.6c16.9,6.4,33.8,12.7,50.8,18.6
					l71.8,26.4l70.5,33.9c16.4,8.3,32.5,15.9,48.6,23.4c29,13.7,59.1,27.7,87.5,44.6l126.5,76.8
					c185.9,126.5,326.7,248.1,431.8,372.3c44.8,44.9,82.4,96.2,118.9,145.7c14.7,20,29.3,39.8,44.2,59
					c17.9,22.6,32.1,46.8,45.9,70.3c7.2,12.3,14.4,24.5,22,36.3c8,13.4,15.5,25.7,23,37.8c13.8,22.4,27.5,44.4,39.3,67
					c169.4,323.6,218.3,593.1,232.2,724.9l9.7,62.7c1.5,14.9,2,27.9,2.5,40.3l9.4,184.1L5640.7,3408.3z"/>
			</g>
			<g>
				<path class="st0" d="M4871.2,1788.5l-177.8-129.7l-134.2-81.8c-6.8-4.2-13.7-8.6-21.1-12.4l-43.3-20.8
					c-18.2-8.2-38.6-18.4-59.6-28.7c-43.3-21.3-88-43.4-134.4-58.2l-121.4-44.3c-19.8-7-43.7-12.9-68.9-19.1
					c-16.1-3.9-32.1-7.9-48.2-12.4c-171.6-49.2-366.5-61.9-518.2-67.3c-151.7,5.4-346.7,18.1-517.3,67.1c-16.9,4.7-33,8.7-49,12.6
					c-25.4,6.2-49.3,12.1-70.2,19.5l-115.7,42.4c-50.8,16.2-95.6,38.3-138.9,59.7c-21,10.3-41.5,20.4-61.7,29.7l-44.7,21.5
					c-4,2.2-11,6.6-17.9,10.8l-157.4,96l-154.3,115.4l-128.6-171.9l166.5-124l161-98.1c11.1-6.8,22.4-13.8,34.4-20l50-24.2
					c20.3-9.3,38.8-18.4,57.6-27.7c48.1-23.7,102.6-50.6,164.5-70.3L2835,1211c32-11.3,62.2-18.7,91.4-26
					c14.1-3.5,28.2-6.9,42.3-10.8c193.5-55.6,407.2-69.3,571.7-75.1l3.8-0.1l3.7,0.1c164.5,5.8,378.2,19.6,572.7,75.4
					c13.2,3.6,27.3,7.1,41.3,10.6c29.3,7.2,59.4,14.7,90.3,25.6l118,43.2c57.4,18.1,112,45,160,68.8c18.9,9.3,37.3,18.5,55.6,26.8
					l48.9,23.5c15,7.8,26.2,14.6,37.2,21.4l187.5,117.4l140.5,105L4871.2,1788.5z"/>
			</g>
		</g>
	</g>
	<g>
		<g>
			<g>
				<path class="st0" d="M3538.5,6027c-206.2,0-379.9-23.1-506.1-47.4c-233-51.7-442.3-120.7-590-194.3c-24.7-12.1-47.7-23-68.6-33
					c-35.5-17-65-31.1-87.3-43l-53.2-32.4l20.9-34.4l52.3,31.8c20.8,11.1,49.8,24.9,84.7,41.6c21.1,10,44.2,21.1,69.2,33.3
					c144.9,72.3,351,140.1,580.3,191c192.3,37.2,498.4,71.3,861.5,22.2c325.4-43.7,647.8-154.3,932.5-320.1
					c284.5-163.9,541.8-387.8,744.2-647.7c187.1-240.1,328.7-502.1,409.8-757.6c19.1-46.4,30.7-92.4,41.8-136.8l9.7-37.8
					c4.7-20,10.1-40.1,15.4-59.8c9.2-34.5,17.9-67,23-98.7l21.9-143.7c1.8-14.5,4.2-29,6.5-43c4.4-27.1,8.7-52.8,8.6-76.2
					l11.8-235.1l40.2,2l-11.9,234c0.2,25.7-4.3,52.9-9.2,81.8c-2.2,13.6-4.5,27.6-6.3,42.1l-22,144.2
					c-5.3,33.9-14.3,67.5-23.8,103.1c-5.2,19.3-10.5,39-15.3,59.1l-9.7,37.9c-11.6,45.9-23.5,93.3-43.2,140.8
					c-81.7,258.4-225.7,524.8-415.7,768.6c-205.6,263.9-467,491.4-755.9,657.7c-289.1,168.3-616.7,280.8-947.3,325.1
					C3776.3,6020,3652.5,6027,3538.5,6027z"/>
			</g>
			<g>
				<path class="st0" d="M3726.7,6139.5l-8.1-160.8l27.2-1.4c4.6-0.3,12.8-0.7,22-1.1c13.7-0.5,30.4-1.2,49.6-3.4
					c19.1-3.2,45.5-7.1,74.9-11.5c56-8.3,119.4-17.6,191.3-31c253.2-55,527.3-160.9,749.6-290.1l112.6-68.4
					c25.1-15.1,48.7-29.3,68.4-45.4l174.9-131.4l191.2-176l79-87c62.6-64.4,107.7-125.3,143.9-174.2l70.8-94.8
					c7.2-9.3,10.6-14.5,11.6-16l137.7,83.3c0,0-6.5,11.2-21.3,30.3l-69.3,92.9c-37.1,50.1-87.8,118.7-156.2,188.8l-103.9,112.2
					l-183.9,167l-175.4,131.7c-26.1,21.3-55.8,39.1-84.5,56.4l-113.5,68.9c-237.6,138.1-528.8,250.6-800,309.5
					c-77.1,14.4-145,24.4-199.5,32.4c-28.5,4.2-53.9,8-76.1,11.7c-27.9,3.3-48.7,4.2-65.6,4.8c-6.9,0.3-13,0.5-18.2,0.9
					L3726.7,6139.5z"/>
			</g>
		</g>
		<g>
			<g>
				<path class="st0" d="M2233.2,5676.9l-155.1-94.1l-198.8-148.6c-13.1-11.1-25-22-37.1-33.1l-142.7-129.7
					c-26.9-27.2-52.7-55.8-79.1-85.2c-15.1-16.7-30.4-33.8-46.3-50.9c-135.7-155.4-325.4-410.3-460.8-744.7
					c-125.9-306.5-192.5-646.7-192.5-983.7c0-337,66.6-677.2,192.5-983.9c135.5-334.3,325.1-589.1,460.4-744.1
					c16.3-17.5,31.6-34.5,46.7-51.3c26.4-29.4,52.2-58,78.3-84.4l143.5-130.4c12.1-11.2,24-22.1,36-32.3l210.4-155.9l144.6-87.8
					l20.9,34.4l-155.1,94.2l-195.6,146.4c-10.6,9.1-22.2,19.7-34.1,30.6l-142.9,129.8c-24.9,25.2-50.2,53.4-76.3,82.3
					c-15.3,16.9-30.7,34.1-46.6,51.3c-132.9,152.2-319.8,403.2-453.1,732.4C1026.6,2740.1,961,3075.1,961,3406.9
					c0.1,331.8,65.6,666.7,189.5,968.6c133.4,329.3,320.2,580.3,453.5,733c15.5,16.8,30.9,33.9,46.2,50.9c26.1,28.9,51.4,57,77.1,83
					l142.1,129.1c11.8,10.8,23.5,21.4,35,31.4l205.2,151.9l144.6,87.8L2233.2,5676.9z"/>
			</g>
			<g>
				<path class="st0" d="M1085,4613.7l-52.8-109.7c-6.1-12.5-12.6-25.7-18.2-40.2l-76.1-208c-50.8-161.9-134.2-482.3-135.5-848.7
					c1.2-366.9,84.6-687.2,134.3-845.5l76.8-210.3c6-15.9,12.6-29.2,18.7-41.6l52.7-109.5l145.1,69.8l-45.3,94.1
					c-2,4.4-5.1,10.6-8.3,17.1c-4,8.3-8.4,17-12.2,26.7l-75.2,205.5c-78.7,251-124.9,541.6-125.7,793.8
					c0.9,251.6,47.1,542.2,126.9,796.9l74.5,203.2c3.3,8.4,7.7,17.1,11.8,25.4c3.2,6.5,6.2,12.7,9.1,18.9l44.5,92.3L1085,4613.7z"/>
			</g>
		</g>
		<g>
			<g>
				<path class="st0" d="M6127.4,3407.9l-11.8-233.9c0.1-24.5-4.2-50.2-8.6-77.3c-2.3-14.1-4.7-28.5-6.6-43.5l-21.8-143.2
					c-5-31.7-13.7-64.2-23-98.7c-5.3-19.7-10.7-39.8-15.6-60.3l-9.5-37.3c-11.1-44.5-22.7-90.4-41.3-135.1
					c-81.6-257.2-223.3-519.2-410.4-759.3c-202.4-259.9-459.7-483.8-744.1-647.6c-284.8-165.7-607.2-276.4-932.6-320.1
					c-363.1-49.1-669.2-15-862,22.2c-228.8,50.8-434.9,118.6-579.7,190.8c-25.1,12.3-48.2,23.3-69.3,33.4
					c-34.9,16.7-63.9,30.5-85.6,42.1l-51.4,31.3l-20.9-34.4l52.2-31.8c23.3-12.4,52.8-26.5,88.3-43.5c20.9-9.9,44-21,68.9-33.1
					c147.5-73.5,356.8-142.5,589.2-194.1c196.3-37.9,507.1-72.6,875.6-22.7c330.6,44.3,658.2,156.7,947.4,325.1
					c288.8,166.3,550.2,393.8,755.8,657.7c190,243.8,333.9,510.2,416.2,770.2c19.2,45.9,31.1,93.3,42.6,139.1l9.5,37.3
					c4.9,20.7,10.2,40.4,15.4,59.7c9.5,35.6,18.5,69.1,23.8,103l21.9,143.8c2,14.9,4.3,28.9,6.5,42.6c4.9,28.9,9.4,56.1,9.2,82.9
					l11.9,232.9L6127.4,3407.9z"/>
			</g>
			<g>
				<path class="st0" d="M5745.4,2004.6l-59.4-37.5c-0.7-1.2-4.3-6.6-11-15.3l-71.6-95.8c-36.2-49-81.3-110-142.1-172.4
					l-123.6-129.8l-148.6-135.1l-172.4-129.5c-22-17.8-45.5-32-70.4-46.9l-114.5-69.5c-220.9-128.4-495-234.2-750.6-289.8
					c-69.7-12.9-133.2-22.3-189.4-30.6c-29.2-4.3-55.4-8.2-78.2-11.9c-15.4-1.7-32.1-2.3-45.8-2.8c-9.2-0.4-17.3-0.7-24.2-1.3
					l-25-1.2l8.1-160.8l27.2,1.4c7.4,0.5,13.5,0.8,20.4,1.1c16.9,0.7,37.7,1.6,61.6,4.3c25.9,4.2,51.3,7.9,79.5,12.1
					c54.6,8.1,122.6,18.1,197.7,32.1c273.7,59.4,564.8,171.9,801,309.2l115.4,70c28.5,17.2,58,34.9,86.4,58l178.7,134.6l224.2,210.6
					l59.7,65.7c66.6,68.2,117.4,136.9,154.4,187l70.2,93.9c11.4,14.7,17.8,24.9,19.2,27.1l-67.8,43.3L5745.4,2004.6z"/>
			</g>
		</g>
	</g>
	<g>
		<g>
			<g>
				<path class="st0" d="M3540,5394.7c-156.5,0-288.3-17.5-384.1-36c-176.2-39.1-335-91.4-447.6-147.4c-18.6-9.1-36-17.3-51.7-24.9
					c-27.2-13-49.8-23.7-66.7-32.8l-40.3-24.5l13.9-22.9l39.7,24.2c16.1,8.5,38.2,19.1,65,31.9c15.8,7.6,33.1,15.9,52,25.1
					c110.9,55.1,267.4,106.6,441.2,145.2c146.2,28.3,378.9,54.2,654.6,16.9c247.4-33.2,492.5-117.3,709-243.3
					c216.2-124.6,411.8-294.8,565.7-492.3c141.9-182.3,249.7-381.4,311.4-576c14.5-35.4,23.4-70.4,32-104.4c2.4-9.6,4.8-19,7.3-28.4
					c3.6-15.1,7.6-30.1,11.5-44.9c7.1-26.4,13.8-51.3,17.7-75.7c3.8-28.2,8.1-55.1,12.3-80.8c7.3-45.5,13.7-84.7,15.8-120.1l9-177.4
					l26.8,1.3l-8.9,177.6c-2.4,36.8-9.1,78.6-16.2,122.8c-4.1,25.4-8.4,52.2-12.3,80.4c-4.1,26-10.9,51.6-18.2,78.7
					c-3.9,14.5-7.8,29.3-11.4,44.5c-2.5,9.6-4.9,18.9-7.3,28.4c-8.8,34.8-17.9,70.9-32.8,107c-62.3,196.5-171.4,398.5-315.5,583.3
					c-155.9,200.1-354.1,372.7-573.3,499c-219.4,127.7-468.1,213-718.9,246.6C3720.3,5389.4,3626.5,5394.7,3540,5394.7z"/>
			</g>
			<g>
				<g>
					<path class="st0" d="M5352.8,4326.7l-96.7-46.6l62.4-131.5l50.6-137.9c10-24.1,16.1-47.9,22.3-73.1l30.6-119
						c5.7-19.1,8-34.9,9.9-48.8l5.7-37.3l106.2,16l-5.6,36.7c-2.4,15.8-5.5,37.4-12.8,62l-29.9,116.4c-6.6,26.6-14.2,56.8-26.4,86.1
						l-61.2,162.7L5352.8,4326.7z"/>
				</g>
				<g>
					<path class="st0" d="M4716.4,5063.2l-64.3-86l74.5-55.7c31.2-20.8,64.6-51.6,99.9-84.3c16.9-15.5,34-31.3,51.6-46.8
						c20.3-17.1,38.4-37.1,55.8-56.4l80.2-88.2c12.4-12.7,21.1-24.5,28.6-34.9c4.1-5.6,7.9-10.7,11.4-15.1l14.2-19l86,64.2
						l-15.3,20.6c-3.8,4.6-6.4,8.4-9.4,12.6c-8.9,12.1-20.9,28.7-37.4,45.5l-78.4,86.4c-19,21.1-40.5,45-65.8,66.1
						c-15.8,14-32.4,29.3-48.5,44.2c-38.6,35.6-75.1,69.2-110.9,93.1L4716.4,5063.2z"/>
				</g>
				<g>
					<path class="st0" d="M3809.7,5418.2l-16.3-106.1l92-14c35.8-3.4,77.6-14.6,121.8-26.5c24-6.4,48.5-13,73.3-18.9
						c27.2-5.8,53.8-15.7,79.6-25.2l107.7-39.4c20.3-6.7,36.1-14.4,48.7-20.6l31.2-15l46.9,96.6l-30.9,14.9
						c-14.8,7.2-35.1,17.2-60.8,25.6l-105.4,38.6c-28,10.4-59.7,22.2-93.5,29.4c-22.6,5.3-46.1,11.6-68.9,17.8
						c-48.8,13.1-94.9,25.5-136.6,29.3L3809.7,5418.2z"/>
				</g>
				<g>
					<path class="st0" d="M3437.8,5432.1l-93-4.7c-42.2-5.4-88.6-12.6-137.6-20.2l-75.8-11.9c-25.6-6.8-51.4-13.3-76.3-19.6
						c-45.5-11.5-88.3-22.4-123.2-32.7l-90.7-33l37-100.8l87.4,32c30.4,8.9,71.9,19.3,115.9,30.5c24.3,6.2,49.5,12.6,74.5,19.1
						l67.5,10.4c48.3,7.4,93.8,14.5,131,19.4l88.5,4.3L3437.8,5432.1z"/>
				</g>
			</g>
		</g>
		<g>
			<g>
				<path class="st0" d="M2549.6,5129.1l-117.6-71.5l-151-112.7l-136.3-123.6c-20.6-20.8-40.5-42.8-60.9-65.5
					c-11.1-12.4-22.6-25.1-34.3-37.7c-102.9-117.8-246.8-311.2-349.5-564.9c-95.5-232.6-146-490.7-146-746.4
					c0-255.7,50.5-513.8,146-746.4c102.8-253.7,246.7-447.1,349.3-564.6c12-13,23.5-25.6,34.6-38c20.4-22.6,40.2-44.6,60.4-65
					l150-133.8l135.3-101.2l120.1-73.3l13.9,22.9l-117.7,71.5l-148.7,111.3l-134.5,121.9c-19.4,19.6-38.9,41.3-59.1,63.6
					c-11.2,12.5-22.7,25.2-34.5,38c-101,115.7-242.9,306.5-344.3,556.8c-94.3,229.5-144,484-144,736.3c0,252.2,49.8,506.8,144,736.2
					c101.5,250.3,243.4,441.1,344.8,557.1c11.5,12.5,23,25.2,34.1,37.7c20.1,22.3,39.7,44,59.6,64.1l147,131.2l135.3,101.2l118,71.9
					L2549.6,5129.1z"/>
			</g>
			<g>
				<g>
					<path class="st0" d="M2244.8,4966.9l-91.5-83.2c-15.4-13.9-32.1-29-48.9-45.3l-75.8-83.2c-40.8-41.2-76.3-89.5-105-128.1
						c-9.1-12.4-17.7-24.1-25.9-34.7c-6.6-9-12.1-16.3-17.2-23c-10.7-14.1-19.8-26.2-25.9-36.4l-13.2-21.8l91.7-55.8l13.3,22
						c4.6,7.6,11.6,16.5,19.6,27.1c5.5,7.3,11.4,15.1,17.7,23.6c7.7,10,16.8,22.3,26.4,35.3c27.9,37.8,59.6,80.8,96.4,118.1l75,82.5
						c13.4,13,29.1,27.1,43.6,40.1l91.8,83.4L2244.8,4966.9z"/>
				</g>
				<g>
					<path class="st0" d="M1667.7,4182.2l-32-87.4c-3.3-9.6-6.8-18.9-10.5-28.6c-7.3-19.7-15.3-41-22.4-63.7l-28-108.6
						c-17.7-58-26.7-119.6-34-169.1l-15.8-103.6c-2.3-22.1-2.3-33.4-2.3-33.4l107.3-0.6c0,0.9,0.2,8.3,1.5,20.3l9.9,64.2
						c1.9,11.3,3.7,24.1,5.6,37.5c7.2,48.4,15.3,103.3,31.2,155.8l27.8,108.1c5.7,18,13,37.5,19.8,55.5c3.8,10.4,7.6,20.4,10.9,29.9
						l31.7,86.7L1667.7,4182.2z"/>
				</g>
				<g>
					<path class="st0" d="M1630.1,3226.5l-107.3-0.8c0,0,0-11.3,2-30.7l16.1-106.2c7.2-49.5,16.3-111.1,34.5-171.3l26.7-103.7
						c7.8-25.4,15.8-46.7,23.2-66.5c3.6-9.7,7.1-18.9,10.2-27.7l32.3-88.1l100.8,36.9l-32,87.4c-3.1,8.8-6.8,18.7-10.7,29
						c-6.7,18.1-14,37.6-20.6,58.3l-26.4,103.3c-16.6,54.8-24.6,109.6-31.8,158c-1.9,13.4-3.7,26.1-5.7,38l-10,66.2
						C1630.3,3218.1,1630.1,3225.4,1630.1,3226.5z"/>
				</g>
				<g>
					<path class="st0" d="M1933.3,2358.3l-91.7-55.7l13.2-21.9c6.1-10.1,15.1-22.2,25.8-36.2c5.2-6.8,10.8-14.1,16.4-22
						c9-11.7,17.7-23.4,26.8-35.7c28.6-38.8,64.2-87,106.5-129.8l72-79.3c19.1-18.7,35.6-33.7,51.1-47.6l91.5-83.2l72.1,79.5
						l-91.8,83.5c-14.5,13-30.1,27.1-45.8,42.4l-71.3,78.6c-38.4,38.9-70.1,81.9-98,119.8c-9.7,12.9-18.7,25.2-27.2,36.3
						c-5.4,7.4-11.3,15.3-16.9,22.6c-8,10.5-14.9,19.4-19.5,27L1933.3,2358.3z"/>
				</g>
			</g>
		</g>
		<g>
			<g>
				<path class="st0" d="M5507.7,3407.6l-9-177.6c-2.2-35.2-8.6-74.5-15.8-119.9c-4.1-25.6-8.4-52.6-12.3-81
					c-3.8-24.1-10.5-49.1-17.6-75.5c-4-14.8-8-29.8-11.6-45.3c-2.4-9-4.8-18.4-7.2-28c-8.6-34-17.4-69-31.5-103.3
					c-62.2-195.6-169.9-394.8-311.8-577.1c-153.9-197.4-349.5-367.7-565.6-492.2c-216.5-126-461.6-210.2-709-243.3
					c-275.8-37.2-508.4-11.3-655.1,17c-173.4,38.4-329.9,90-440.7,145c-19,9.2-36.3,17.6-52.1,25.1c-26.8,12.8-48.9,23.4-65.7,32.3
					l-39.1,23.8l-13.9-22.9l39.7-24.1c17.6-9.5,40.2-20.2,67.3-33.2c15.8-7.5,33.1-15.8,51.8-24.9c112.6-56,271.4-108.3,447.2-147.2
					c148.9-28.8,384.7-55.2,664.2-17.3c250.8,33.6,499.4,118.9,718.9,246.6c219.2,126.3,417.4,298.8,573.3,498.9
					c144,184.8,253.2,386.8,315.8,584.4c14.6,35,23.7,71.1,32.5,105.9c2.3,9.5,4.7,18.8,7.1,28.1c3.7,15.5,7.6,30.3,11.5,44.8
					c7.3,27.1,14.1,52.8,18.2,78.5c3.9,28.4,8.1,55.2,12.3,80.6c7.1,44.2,13.8,86,16.2,122.7l8.9,177.8L5507.7,3407.6z"/>
			</g>
			<g>
				<g>
					<path class="st0" d="M2878.3,1604.5l-37-100.8l87.4-32c38.1-11.3,80.9-22.2,126.4-33.8c24.9-6.4,50.7-12.9,76.4-19.6l5.6-1.2
						l70.2-10.8c49-7.6,95.4-14.8,133.2-19.8l97.3-5.1l5.3,107.2l-92.8,4.7c-32.9,4.6-78.4,11.6-126.6,19.1l-67.6,10.4
						c-25.1,6.6-50.3,13-74.6,19.1c-44,11.2-85.4,21.7-119.2,31.6L2878.3,1604.5z"/>
				</g>
				<g>
					<path class="st0" d="M4348,1661.4l-31.5-15.2c-13.4-6.5-28.5-13.9-46.9-19.9l-109.4-40c-25.8-9.6-52.4-19.5-78.6-25
						c-25.8-6-50.3-12.7-74.3-19.1c-44.2-11.9-86.1-23-118.7-26.1l-95.2-14.4l16.2-106.2l92,14.1c38.6,3.4,84.6,15.8,133.4,28.9
						c22.8,6.1,46.3,12.5,69.9,18c32.8,7,64.5,18.8,92.6,29.2l107.1,39.2c23.7,7.7,44,17.6,58.8,24.9l30.9,14.9L4348,1661.4z"/>
				</g>
				<g>
					<path class="st0" d="M5068.2,2237l-15.3-20.3c-2.3-3-6.1-8.1-10.1-13.7c-7.6-10.4-16.3-22.3-27.3-33.5l-81.7-89.8
						c-17.4-19.3-35.4-39.3-54.7-55.5c-18.5-16.3-35.7-32-52.3-47.5c-35.4-32.7-68.9-63.5-97.7-82.6l-77-57.5l64.3-86l74.5,55.7
						c33.5,22.1,70,55.8,108.7,91.5c16.1,14.9,32.5,30.1,49.4,44.9c24.2,20.1,45.6,44.1,64.6,65.1l79.9,88
						c15.1,15.4,27.2,31.9,36,44c3.1,4.2,5.7,7.9,8.3,11.2l16.5,22L5068.2,2237z"/>
				</g>
				<g>
					<path class="st0" d="M5437.7,3081.2l-5.7-37.3c-2-13.9-4.3-29.7-9.4-46.8l-24.3-94.3c-2.3-8.3-4.6-17.5-6.9-26.8
						c-6.3-25.1-12.2-48.8-21.3-70.6l-55.9-151.7l-58-119.9l96.6-46.5l79.5,176.1l37.7,103c11.3,27.1,19,57.1,25.5,83.7l30.5,118.6
						c6.8,22.6,9.9,44.2,12.2,60l5.7,36.8L5437.7,3081.2z"/>
				</g>
			</g>
		</g>
	</g>
	<g>
		<g>
			<g>
				<polygon class="st0" points="5917.5,3504.3 5893.2,3503 5898,3406.2 5922.4,3407.5 				"/>
			</g>
			<g>
				<path class="st0" d="M5876.6,3871.1l-24.1-4.1c0.8-4.6,1.5-9.8,2.3-15.5l18.5-121.1l24.1,3.7l-18.4,120.7
					C5878.2,3860.5,5877.5,3866.1,5876.6,3871.1z M5910.6,3641.7l-24.4-1.2l2.3-46.1l24.3,1.2L5910.6,3641.7z"/>
			</g>
			<g>
				<path class="st0" d="M3685.7,5778l-1.4-24.4l24.6-1.3c7.3-0.7,16.3-1,26.4-1.3c18.9-0.6,42.4-1.4,68.9-5.4
					c5.1-0.9,10.7-1.9,16.4-2.9l4.1,24.1c-5.7,0.9-11.1,1.9-16.5,2.8c-28.3,4.3-52.6,5.1-72.1,5.8c-9.7,0.3-18.2,0.6-25.6,1.3
					L3685.7,5778z M3915.7,5753.5l-3.6-24.2c14.7-2.2,29.8-4.4,45.5-7l3.8,24.2C3945.6,5749,3930.4,5751.3,3915.7,5753.5z
					 M4052.7,5729.3l-5.2-23.9c33.1-7.2,63.9-15.2,94.4-24.3c27.2-7,54.8-14.6,82.9-23l7,23.4c-28.3,8.6-56.2,16.3-83.2,23.2
					C4117.8,5713.9,4086.3,5722,4052.7,5729.3z M4298,5660.4l-7.8-23.2c42.8-14.4,86.1-30.4,129-47.7l9.1,22.6
					C4385.1,5629.7,4341.2,5645.9,4298,5660.4z M4513.6,5576.1l-9.9-22.3c13.9-6.2,27.8-12.6,41.7-19.1l10.4,22.1
					C4541.8,5563.4,4527.7,5569.8,4513.6,5576.1z M4639,5515.9l-11.3-21.7c54.8-28.3,108.6-58.5,159.9-90.1l12.8,20.8
					C4748.6,5456.8,4694.3,5487.4,4639,5515.9z M4859,5387.6l-13.4-20.4c38.4-25.1,76.2-51.7,112.5-79l14.7,19.5
					C4936,5335.2,4897.8,5362.1,4859,5387.6z M5045.7,5250.2l-15.6-18.8c10.5-8.7,20.8-17.4,31.2-26.2l3.3-3.2l16.7,17.8l-3.8,3.6
					C5066.6,5232.7,5056.3,5241.5,5045.7,5250.2z M5149.4,5158.1l-16.2-18.2c48.7-43.6,92.2-83.4,129.7-128.2l18.8,15.7
					C5243,5073.5,5198.9,5113.8,5149.4,5158.1z M5327.7,4976.5l-18.1-16.4l49.3-54.3l38.3-51.1l19.5,14.7l-49,63.1L5327.7,4976.5z
					 M5472.5,4796.1l-19.4-14.9c9.3-12.1,18.2-24.4,26.9-36.8l20.1,14C5491.2,4771.2,5482,4783.7,5472.5,4796.1z M5550.5,4680.5
					l-20.9-12.7c8.4-13.7,16.5-27.3,24.7-40.7c8.8-14.7,17.6-29.3,26.4-43.7l31.5-51.7c3.6-6.7,7.1-14.1,10.7-21.4l22,10.6
					c-3.6,7.7-7.5,15.3-11.6,22.9l-31.7,52.4c-8.8,14.3-17.6,28.8-26.4,43.5C5567.1,4653.2,5558.9,4666.8,5550.5,4680.5z
					 M5674.9,4458.5l-22.1-10.6l33.1-68.7c9.2-17.2,17.7-35.2,26.1-55.5l22.6,9.4c-8.8,21.1-17.7,39.7-26.9,57.2L5674.9,4458.5z
					 M5767,4246.1l-23-8.2c4.7-13.3,9.4-26.3,14.4-38.7l1.7-4.6l22.8,8.6l-1.7,4.6C5776.3,4220.3,5771.7,4233,5767,4246.1z
					 M5814.2,4115.8l-23.2-7.6c6.2-19.3,10.8-35.6,13.7-50l32.8-127.6l23.7,6.1l-32.6,127
					C5825.5,4078.4,5820.7,4095.6,5814.2,4115.8z"/>
			</g>
			<g>
				<polygon class="st0" points="3544.8,5785.1 3543.5,5760.7 3640.3,5755.8 3641.6,5780.2 				"/>
			</g>
		</g>
		<g>
			<g>
				<polygon class="st0" points="3543.5,5785.1 3446.7,5780.2 3448.1,5755.8 3544.8,5760.7 				"/>
			</g>
			<g>
				<path class="st0" d="M3355.4,5775.5l-46.1-2.3l1.2-24.4l46.1,2.3L3355.4,5775.5z M3216.9,5759.9l-120.7-18.4
					c-5.7-0.7-11.2-1.5-16.2-2.3l4.1-24.1c4.7,0.8,9.8,1.5,15.4,2.2l121.1,18.5L3216.9,5759.9z"/>
			</g>
			<g>
				<path class="st0" d="M3014.4,5723.8l-127-32.7c-14.7-3-31.9-7.7-52.2-14.2l7.6-23.2c19.3,6.2,35.7,10.8,50,13.7l127.6,32.8
					L3014.4,5723.8z M2748,5645.6l-4.6-1.7c-12.6-4.9-25.4-9.5-38.4-14.2l8.2-23c13.4,4.8,26.2,9.5,38.7,14.4l4.6,1.7L2748,5645.6z
					 M2618.1,5597.3c-21-8.7-39.7-17.5-57.3-26.9l-68.2-32.8l10.6-22l68.6,33.1c17.4,9.3,35.4,17.7,55.6,26.1L2618.1,5597.3z
					 M2430.3,5507.6c-7.8-3.7-15.4-7.5-23-11.5l-52.4-31.8c-14.3-8.8-28.9-17.5-43.6-26.4c-13.4-8.2-27.1-16.4-40.8-24.8l12.7-20.8
					c13.7,8.3,27.2,16.5,40.8,24.6c14.7,8.8,29.3,17.6,43.7,26.4l51.7,31.5c6.7,3.5,14.1,7.2,21.4,10.7L2430.3,5507.6z
					 M2192.6,5362.7c-12.7-8.8-25.2-18-37.6-27.6l14.8-19.3c12.1,9.3,24.3,18.3,36.8,26.8L2192.6,5362.7z M2081.7,5279.4l-63.1-49
					l-44-40l16.4-18.1l54.3,49.4l51,38.2L2081.7,5279.4z M1923.7,5144.3c-46.2-38.7-86.6-82.8-130.8-132.3l18.2-16.3
					c43.6,48.7,83.3,92.1,128.2,129.8L1923.7,5144.3z M1731.3,4944l-3.7-3.8c-9.2-10.8-18.1-21.3-26.7-31.8l18.7-15.6
					c8.7,10.4,17.4,20.8,26.2,31.1l3.3,3.4L1731.3,4944z M1643.5,4835.4c-27.6-36.7-54.6-75-80.1-113.8l20.5-13.4
					c25.1,38.4,51.8,76.2,79,112.5L1643.5,4835.4z M1526.2,4663c-31.9-51.8-62.5-106.1-91-161.4l21.6-11.3
					c28.3,54.8,58.6,108.6,90.2,159.8L1526.2,4663z M1394.3,4418.5c-6.6-14.1-13-28.1-19.3-42.2l22.3-9.9
					c6.2,13.9,12.6,27.8,19.1,41.7L1394.3,4418.5z M1338.8,4291.1c-17.5-43.3-33.6-87.2-48.2-130.4l23.2-7.8
					c14.5,42.8,30.4,86.2,47.7,129.1L1338.8,4291.1z M1269.5,4094.4c-8.5-28.4-16.3-56.2-23.2-83.3c-9.2-30.6-17.3-62.1-24.6-95.7
					l23.9-5.2c7.2,33,15.2,63.9,24.3,94.3c6.9,27.2,14.5,54.8,23,82.8L1269.5,4094.4z M1204.7,3824.2c-2.6-15.8-4.9-31-7-45.8
					l24.1-3.5c2.2,14.6,4.4,29.7,7,45.4L1204.7,3824.2z M1184.3,3687.4c-0.9-5.6-1.9-11.1-2.8-16.4c-4.2-28.4-5.1-52.6-5.7-72.1
					c-0.4-9.7-0.7-18.3-1.3-25.6l-1.2-25.1l24.3-1.1l1.2,24.4c0.7,7.2,1,16.3,1.4,26.5c0.6,18.8,1.5,42.3,5.4,68.9
					c0.9,5.1,2,10.7,2.8,16.5L1184.3,3687.4z"/>
			</g>
			<g>
				<polygon class="st0" points="1170.9,3504.3 1166,3407.5 1190.3,3406.2 1195.3,3503 				"/>
			</g>
		</g>
		<g>
			<g>
				<polygon class="st0" points="1190.3,3407.5 1166,3406.2 1170.9,3309.5 1195.3,3310.7 				"/>
			</g>
			<g>
				<path class="st0" d="M1200,3219.3l-24.4-1.2l2.3-46.1l24.3,1.2L1200,3219.3z M1215.3,3083.3l-24.2-3.7l18.4-120.7
					c0.7-5.6,1.5-11.1,2.4-16.1l24,4c-0.8,4.7-1.5,9.8-2.2,15.4L1215.3,3083.3z"/>
			</g>
			<g>
				<path class="st0" d="M1250.9,2883.1l-23.6-6.1l32.7-127c3-14.7,7.7-31.9,14.2-52l23.2,7.5c-6.2,19.3-10.8,35.7-13.7,50
					L1250.9,2883.1z M1328.3,2619.3l-22.9-8.6l1.7-4.7c4.9-12.5,9.5-25.3,14.2-38.4l23,8.2c-4.9,13.3-9.6,26.3-14.4,38.7
					L1328.3,2619.3z M1376.4,2490l-22.6-9.4c8.7-21,17.5-39.7,26.9-57.2l32.8-68.2l21.9,10.6l-33,68.6
					C1393.2,2451.7,1384.8,2469.7,1376.4,2490z M1465.5,2303.6l-22-10.6c3.7-7.7,7.4-15.3,11.5-22.9l31.9-52.4
					c8.8-14.3,17.6-28.9,26.3-43.5c8.2-13.5,16.4-27.2,24.8-40.9l20.8,12.7c-8.3,13.7-16.5,27.2-24.6,40.7
					c-8.9,14.7-17.7,29.3-26.4,43.7l-31.5,51.7C1472.6,2288.9,1468.9,2296.2,1465.5,2303.6z M1608.4,2069.2l-20-13.9
					c8.8-12.7,17.9-25.2,27.5-37.7l19.3,14.9C1625.9,2044.6,1617.1,2056.9,1608.4,2069.2z M1691.1,1959.1l-19.5-14.7l49-63l40-44.1
					l18.1,16.4l-49.4,54.3L1691.1,1959.1z M1825.4,1802.1l-18.7-15.7c38.6-46.1,82.7-86.5,132.3-130.7l16.3,18.2
					C1906.5,1717.5,1863,1757.2,1825.4,1802.1z M2023.8,1611.8l-16.7-17.9l3.8-3.6c10.8-9.3,21.4-18.1,31.9-26.8l15.5,18.8
					c-10.5,8.6-20.8,17.4-31.1,26.2L2023.8,1611.8z M2130.3,1525.6l-14.7-19.5c36.8-27.6,75-54.5,113.8-79.9l13.4,20.4
					C2204.4,1471.8,2166.6,1498.4,2130.3,1525.6z M2300.9,1409.7l-12.9-20.8c51.8-31.9,106.1-62.4,161.4-91l11.2,21.7
					C2405.8,1347.8,2352,1378.1,2300.9,1409.7z M2542.9,1279.1l-10.2-22.1c14-6.6,28-13,42.1-19.3l10,22.4
					C2570.8,1266.2,2556.9,1272.5,2542.9,1279.1z M2669.1,1224.2l-9.2-22.7c43.4-17.4,87.2-33.6,130.5-48.2l7.7,23.2
					C2755.4,1190.9,2712,1206.9,2669.1,1224.2z M2863.7,1155.6l-7.1-23.4c28.5-8.6,56.3-16.3,83.4-23.2c30.6-9.2,62-17.3,95.7-24.6
					l5.2,23.9c-33,7.2-63.9,15.1-94.4,24.3C2919.3,1139.5,2891.8,1147.1,2863.7,1155.6z M3130.8,1091.4l-3.8-24.1
					c15.8-2.5,31-4.8,45.7-7l3.6,24.2C3161.7,1086.6,3146.6,1088.9,3130.8,1091.4z M3267.6,1071l-3.9-24.1c5.6-0.9,11-1.9,16.3-2.9
					c28.4-4.2,52.7-5.1,72.2-5.8c9.6-0.3,18.2-0.6,25.6-1.3l24.9-1.3l1.3,24.4l-24.6,1.3c-7.3,0.7-16.3,1-26.5,1.4
					c-18.7,0.6-42.2,1.5-68.9,5.4C3279.1,1069.1,3273.4,1070.1,3267.6,1071z"/>
			</g>
			<g>
				<polygon class="st0" points="3448.1,1058 3446.7,1033.6 3543.5,1028.7 3544.8,1053.1 				"/>
			</g>
		</g>
		<g>
			<g>
				<polygon class="st0" points="3640.3,1058 3543.5,1053.1 3544.8,1028.7 3641.6,1033.6 				"/>
			</g>
			<g>
				<path class="st0" d="M4004.4,1098.6c-4.7-0.8-10-1.6-15.5-2.3l-121.2-18.5l3.8-24.1l120.7,18.4c5.7,0.7,11.2,1.5,16.2,2.3
					L4004.4,1098.6z M3777.8,1064.9l-46-2.3l1.2-24.4l46.1,2.3L3777.8,1064.9z"/>
			</g>
			<g>
				<path class="st0" d="M5891,3266.6l-1.3-24.4c-0.7-7.3-1-16.3-1.3-26.5c-0.7-18.8-1.5-42.3-5.4-68.9c-0.9-5.1-1.9-10.7-2.9-16.5
					l24.1-4c0.9,5.7,1.8,11.1,2.8,16.4c4.3,28.4,5.1,52.6,5.8,72.1c0.3,9.7,0.6,18.3,1.2,25.6l1.3,25L5891,3266.6z M5866.6,3038.9
					c-2.2-14.6-4.4-29.8-7-45.4l24.1-3.9c2.5,15.8,4.9,31,7,45.7L5866.6,3038.9z M5842.7,2903.6c-7.2-33-15.1-63.9-24.3-94.4
					c-7-27.3-14.6-54.7-23-82.8l23.4-7c8.6,28.4,16.3,56.2,23.2,83.3c9.2,30.6,17.3,62,24.6,95.7L5842.7,2903.6z M5774.5,2660.8
					c-14.3-42.7-30.4-86.2-47.6-129l22.7-9.1c17.4,43.3,33.6,87.2,48.1,130.4L5774.5,2660.8z M5691.1,2447.3
					c-6.2-13.9-12.6-27.8-19-41.7l22-10.4c6.7,14.1,13.1,28.1,19.4,42.2L5691.1,2447.3z M5631.5,2323.3
					c-28.2-54.8-58.5-108.6-90.1-159.8l20.8-12.8c31.9,51.8,62.5,106,91.1,161.4L5631.5,2323.3z M5504.5,2105.5
					c-25.2-38.4-51.8-76.2-79.1-112.5l19.5-14.7c27.6,36.7,54.6,75,79.9,113.8L5504.5,2105.5z M5368.8,1921
					c-8.6-10.4-17.4-20.8-26.3-31.1l-3.2-3.4l17.9-16.7l3.6,3.8c9.4,10.8,18.1,21.3,26.9,31.9L5368.8,1921z M5277.2,1817.9
					c-43.6-48.7-83.3-92.2-128.3-129.8l15.8-18.7c46.1,38.7,86.5,82.8,130.8,132.2L5277.2,1817.9z M5097.4,1641.4l-54.3-49.3
					l-51.1-38.3l14.7-19.5l63,49l44.1,40L5097.4,1641.4z M4918.6,1498c-12.1-9.3-24.4-18.2-36.8-26.9l13.9-20
					c12.7,8.8,25.3,18,37.7,27.6L4918.6,1498z M4805.1,1421.4c-13.7-8.3-27.2-16.5-40.8-24.6c-14.7-8.8-29.3-17.6-43.7-26.4
					l-51.7-31.5c-6.7-3.5-14-7.1-21.4-10.7l10.6-22c7.6,3.7,15.3,7.5,22.9,11.5l52.4,31.8c14.3,8.8,28.8,17.6,43.4,26.4
					c13.6,8.1,27.2,16.3,40.9,24.7L4805.1,1421.4z M4585.2,1298.2l-68.6-33.1c-17.3-9.3-35.4-17.7-55.6-26.1l9.3-22.6
					c21.1,8.7,39.8,17.5,57.4,26.9l68.1,32.8L4585.2,1298.2z M4375.2,1207.1c-13.3-4.8-26.3-9.6-38.7-14.4l-4.6-1.8l8.6-22.8
					l4.6,1.8c12.5,4.9,25.2,9.6,38.4,14.2L4375.2,1207.1z M4245.5,1160.1c-19.3-6.3-35.6-10.7-50-13.7l-127.6-32.8l6.1-23.6
					l127,32.7c14.7,3,31.9,7.7,52,14.3L4245.5,1160.1z"/>
			</g>
			<g>
				<polygon class="st0" points="5898,3407.5 5893.2,3310.7 5917.5,3309.5 5922.4,3406.2 				"/>
			</g>
		</g>
	</g>
	<g>
		<g>
			<g>
				<path class="st0" d="M3617.1,6265.7l-1.4-26.8l107.1-5.4l1.4,26.7L3617.1,6265.7z M3831.5,6254.7l-1.6-26.8l6.8-0.3l98.1-15.1
					l4.1,26.5L3831.5,6254.7z M4045.1,6222.8l-4-26.5l46.4-7.1c16.9-2.3,34.6-5.8,58-11.7l6.5,26c-24.3,6.1-42.9,9.9-60.7,12.2
					L4045.1,6222.8z M4255.9,6176.5l-6.7-26l103.9-27l6.6,26L4255.9,6176.5z M4463,6115.9l-9.2-25.2l100.1-36.6l9.4,25.1
					L4463,6115.9z M4665.2,6040.9l-11-24.5c12.9-5.8,25.9-12.1,38.7-18.5c10.1-4.9,20.1-9.9,30.4-14.6l27.4-13.3l11.6,24.2
					l-27.5,13.3c-10.2,4.7-20.2,9.6-30,14.4C4691.5,6028.6,4678.4,6035,4665.2,6040.9z M4859,5947.8l-11.6-24.2l49.7-24
					c14.2-8.1,29.2-16.7,44.2-25.6l13.6,23.1c-15.1,8.9-30.2,17.6-45.4,26.3L4859,5947.8z M5046.9,5841.1l-14.3-22.7
					c29.9-18.9,59.7-38.5,89.4-58.6l15,22.1C5107.1,5802.2,5077,5822,5046.9,5841.1z M5225.3,5719.9l-15.9-21.7
					c28.8-20.9,57.2-42.3,85.4-64.3l16.6,21.2C5282.8,5677.2,5254.1,5698.8,5225.3,5719.9z M5395.1,5587.2l-17.1-20.6
					c27.2-22.8,54.2-46.1,80.8-69.9l17.9,19.9C5449.8,5540.7,5422.6,5564.2,5395.1,5587.2z M5556,5442.9l-19.1-18.9l12.5-12.1
					c20.6-21.2,41.1-42.8,61.3-64.8l19.8,18.1c-20.3,22.2-41,44.1-62.1,65.7L5556,5442.9z M5702,5284.6l-20.5-17.5
					c23.2-27.1,45.9-54.6,68.1-82.4l21,16.7C5748.3,5229.4,5725.4,5257.2,5702,5284.6z M5836.5,5116.1l-21.6-16
					c21.4-28.6,42.1-57.6,62.5-86.8l22,15.3C5879,5058,5858,5087.2,5836.5,5116.1z M5959.5,4939.2l-22.6-14.6
					c19.5-30.1,38.4-60.3,56.6-90.6l23,13.8C5998.2,4878.3,5979.1,4908.8,5959.5,4939.2z M6069.8,4753.2l-24.1-11.7l46.6-96.6
					l24.1,11.6L6069.8,4753.2z M6163.1,4559.9l-24.1-11.8c7.5-15.4,14.8-30.7,21.2-46.3l18.9-51.7l25.2,9.2l-19,52.1
					C6178.4,4528.2,6170.9,4544,6163.1,4559.9z M6241.3,4358.6l-25.2-9.2l36.1-99.6l26,6.5l-5.7,17.1L6241.3,4358.6z M6305,4152.5
					l-26-6.7l13.1-50.7c4.1-17.9,9-35.8,13.7-53.3l25.9,7c-4.6,17.3-9.4,34.8-13.6,52.8L6305,4152.5z M6354.8,3942.5l-26.4-4.1
					l16.2-106.1l26.5,4L6354.8,3942.5z M6387.2,3730.3l-26.4-4l4.3-28.3l3.9-77.4l26.8,1.4l-4.1,78.7L6387.2,3730.3z M6401.3,3514.8
					l-26.8-1.4l5.4-107.2l26.7,1.3L6401.3,3514.8z"/>
			</g>
		</g>
		<g>
			<g>
				<path class="st0" d="M3543.5,6269.3l-107.2-5.4l1.4-26.8l107.2,5.4L3543.5,6269.3z M3329.1,6258.5l-78.7-4.1l-29.6-4.4l4.1-26.5
					l28.3,4.3l77.3,4L3329.1,6258.5z M3114.7,6233.7l-106.1-16.2l4.1-26.5l106.1,16.2L3114.7,6233.7z M2902.2,6194.5
					c-17.2-4.6-34.7-9.4-52.7-13.6l-51.1-13.2l6.8-26l50.7,13.1c17.9,4.1,35.7,9,53.3,13.7L2902.2,6194.5z M2694.7,6140.9l-17.1-5.8
					l-85.1-31.1l9.2-25.2l99.5,36.1L2694.7,6140.9z M2491.7,6067l-52.1-19.1c-16.6-6.8-32.5-14.4-48.4-22.2l11.8-24.1
					c15.4,7.5,30.7,14.9,46.3,21.2l51.6,18.9L2491.7,6067z M2294.5,5979.1l-96.6-46.6l11.6-24.1l96.7,46.6L2294.5,5979.1z
					 M2103.3,5879.2c-30.5-18.4-61-37.4-91.4-57l14.5-22.5c30.1,19.5,60.4,38.3,90.7,56.6L2103.3,5879.2z M1922.4,5762.1
					c-29.3-20.4-58.6-41.4-87.5-62.9l16.1-21.5c28.6,21.4,57.6,42.2,86.7,62.5L1922.4,5762.1z M1749.7,5633.3
					c-28.1-22.3-55.8-45.2-83.2-68.6l17.5-20.4c27.1,23.2,54.6,45.9,82.4,68L1749.7,5633.3z M1585.9,5493.1
					c-22.2-20.3-44.1-41-65.7-62.1l-12.1-12.4l18.9-19.1l12.1,12.5c21.1,20.6,42.9,41.1,64.8,61.3L1585.9,5493.1z M1434.4,5339.3
					c-24-26.8-47.7-54-70.6-81.5l20.6-17.2c22.8,27.3,46.1,54.2,70,80.8L1434.4,5339.3z M1296.1,5173.9
					c-22.2-28.4-43.8-57.1-64.9-86l21.7-15.8c20.9,28.7,42.3,57.1,64.4,85.3L1296.1,5173.9z M1169.1,4999.7
					c-20.3-29.9-40-60-59.1-90.1l22.7-14.4c18.9,29.9,38.4,59.7,58.6,89.4L1169.1,4999.7z M1053.9,4817.5
					c-8.9-15.1-17.7-30.2-26.1-45.4l-24.3-50.5l24-11.6l24,49.7c8.1,14.2,16.8,29.2,25.6,44.3L1053.9,4817.5z M956.7,4624.9
					l-13.2-27.5c-4.8-10.2-9.7-20.1-14.5-30c-6.5-13.2-12.9-26.3-18.9-39.5l24.6-11c5.7,12.9,12.1,25.8,18.5,38.7
					c4.9,10.1,9.8,20.1,14.5,30.3l13.3,27.4L956.7,4624.9z M871.9,4426.1l12.8-4.2L871.9,4426.1l-36.8-100.4l25.2-9.2l36.6,100.1
					L871.9,4426.1z M801.4,4222.5l-26.9-103.9l25.9-6.7l27,103.9L801.4,4222.5z M747.5,4014.6c-6.2-24.3-10-43-12.2-60.7l-7.1-46.1
					l26.5-4.1l7.1,46.5c2.3,16.9,5.8,34.7,11.7,57.9L747.5,4014.6z M712,3801.7l-15.6-107.4l26.8-1.6l0.3,6.8l15.1,98.2L712,3801.7z
					 M690.7,3586.9l-5.4-107.2l26.7-1.4l5.4,107.2L690.7,3586.9z"/>
			</g>
		</g>
		<g>
			<g>
				<path class="st0" d="M708.5,3407.6l-26.7-1.3l5.4-107.2l26.8,1.3L708.5,3407.6z M719.4,3193.1l-26.7-1.3l4.1-78.8l4.4-29.5
					l26.6,4l-4.3,28.3L719.4,3193.1z M743.8,2981.4l-26.4-4l16.2-106.1l26.5,4.1L743.8,2981.4z M782.5,2772l-25.9-7
					c4.6-17.3,9.4-34.8,13.6-52.7l13.1-51l26.1,6.7l-13.1,50.7C792.1,2736.5,787.3,2754.4,782.5,2772z M836.3,2563.9l-26.1-6.5
					l5.8-17.1l31.1-85.2l25.3,9.2L836.3,2563.9z M909.3,2363.6l-25.3-9.2l19.1-52.2c6.8-16.6,14.4-32.5,22.2-48.3l24.1,11.8
					c-7.5,15.4-14.9,30.7-21.2,46.3L909.3,2363.6z M996.1,2168.8l-24.2-11.6l46.6-96.7l24.1,11.7L996.1,2168.8z M1094.8,1979.8
					l-23-13.8c18.4-30.6,37.3-61.1,57-91.4l22.5,14.5C1132,1919.3,1113.1,1949.6,1094.8,1979.8z M1211,1800.4l-21.9-15.3
					c20.3-29.4,41.4-58.5,62.8-87.5l21.6,16.1C1252.1,1742.3,1231.3,1771.3,1211,1800.4z M1338.8,1629l-21-16.7
					c22.3-28.1,45.3-55.7,68.6-83.1l20.4,17.4C1383.6,1573.8,1360.9,1601.3,1338.8,1629z M1477.7,1466.7l-19.8-18.1
					c20.3-22.2,41-44,62.1-65.6l12.4-12.1l19.1,18.9l-12.6,12.1C1518.3,1423.1,1497.9,1444.7,1477.7,1466.7z M1629.8,1317.1
					l-17.9-20c26.8-24,54-47.6,81.5-70.6l17.2,20.6C1683.2,1270,1656.2,1293.3,1629.8,1317.1z M1793.6,1179.9l-16.4-21.2
					c28.3-22.2,57.1-43.8,86-64.9l15.8,21.7C1850.3,1136.4,1821.8,1157.9,1793.6,1179.9z M1966.5,1054l-15.1-22.2
					c29.9-20.3,59.9-40,90.1-59.1l14.4,22.7C2025.9,1014.3,1996,1033.9,1966.5,1054z M2147.1,939.7l-13.5-23.1
					c15-8.9,30.2-17.7,45.3-26.3l50.5-24.3l11.6,24.2l-49.6,24C2177.1,922.2,2162.1,930.9,2147.1,939.7z M2337.7,843.6l-11.6-24.2
					l27.5-13.2c10.2-4.8,20.1-9.6,30.1-14.5c13.2-6.5,26.3-12.9,39.5-18.8l11,24.5c-12.9,5.8-25.8,12.1-38.7,18.5
					c-10,4.9-20.1,9.9-30.4,14.6L2337.7,843.6z M2534.5,759.7l-9.4-25.1l100.3-36.7l9.2,25.2L2534.5,759.7z M2735.3,690.1l-6.8-26
					l104-26.9l6.7,25.9L2735.3,690.1z M2943,636.2l-6.5-26c24.3-6.1,42.9-9.9,60.7-12.2l46.1-7l4.1,26.5l-46.5,7.1
					C2984,626.8,2966.2,630.4,2943,636.2z M3153.4,601.3l-4-26.5l107.4-15.7l1.5,26.7l-6.7,0.3L3153.4,601.3z M3365.5,580.3
					l-1.3-26.8l107.2-5.4l1.3,26.8L3365.5,580.3z"/>
			</g>
		</g>
		<g>
			<g>
				<path class="st0" d="M6376.2,3335.4l-5.4-107.2l26.7-1.4l5.4,107.2L6376.2,3335.4z M6365.2,3121.1l-0.4-6.8l-15.1-98.2l26.5-4.1
					l15.8,107.5L6365.2,3121.1z M6333.6,2910.1l-7-46.5c-2.3-16.9-5.8-34.7-11.6-57.9l25.9-6.6c6.2,24.3,9.9,43,12.3,60.8l7,46.1
					L6333.6,2910.1z M6287.8,2701.9l-26.9-104l26.1-6.7l26.9,103.9L6287.8,2701.9z M6228,2497.3l-36.6-100.1l25.1-9.6l-12.7,4.2
					l12.7-4.2l36.8,100.4L6228,2497.3z M6153.8,2296.9c-5.9-13-12.2-25.9-18.5-38.7c-4.9-10.1-9.9-20.1-14.6-30.4l-13.2-27.4
					l24.2-11.6l13.2,27.5c4.7,10.2,9.7,20.2,14.5,30.1c6.4,13.2,12.9,26.3,18.8,39.6L6153.8,2296.9z M6060.9,2103.7l-24-49.7
					c-8.1-14.2-16.7-29.2-25.5-44.3l23.1-13.5c8.9,15.1,17.6,30.2,26.2,45.4l24.3,50.5L6060.9,2103.7z M5955.7,1918.5
					c-18.9-29.9-38.5-59.7-58.6-89.4l22.2-15.1c20.4,29.9,40,60,59.1,90.1L5955.7,1918.5z M5835.5,1741.7
					c-20.8-28.7-42.3-57.1-64.3-85.4l21.1-16.5c22.2,28.4,43.9,57.2,64.9,86L5835.5,1741.7z M5703.9,1573.2
					c-22.7-27.3-46.1-54.2-69.9-80.8l19.9-17.9c24.1,26.8,47.6,54,70.5,81.5L5703.9,1573.2z M5561.3,1414.1l-12.1-12.5
					c-21.2-20.6-42.9-41.1-64.8-61.3l18.2-19.8c22.2,20.3,44,41,65.6,62.1l12.1,12.4L5561.3,1414.1z M5404.4,1269.5
					c-27.2-23.2-54.6-45.9-82.4-68l16.7-20.9c28,22.3,55.7,45.2,83.2,68.6L5404.4,1269.5z M5237.4,1136.2
					c-28.6-21.4-57.6-42.2-86.7-62.5l15.3-22c29.3,20.4,58.6,41.4,87.5,62.9L5237.4,1136.2z M5061.9,1014.1
					c-30.2-19.5-60.4-38.4-90.7-56.6l13.8-23c30.6,18.4,61.1,37.4,91.4,57.1L5061.9,1014.1z M4878.9,905.4l-96.7-46.6l11.6-24.2
					l96.7,46.6L4878.9,905.4z M4685.4,812.1c-15.3-7.5-30.7-14.8-46.2-21.2l-51.6-18.9l9.2-25.2l52.1,19.1
					c16.7,6.7,32.5,14.4,48.5,22.1L4685.4,812.1z M4486.7,735.1l-99.6-36.1l6.5-26l17.1,5.8l85.2,31.1L4486.7,735.1z M4283.1,672
					l-50.7-13.1c-17.9-4.2-35.8-9-53.2-13.7l6.9-25.9c17.3,4.6,34.8,9.4,52.7,13.5l51,13.2L4283.1,672z M4075.7,622.7l-106.1-16.2
					l4.1-26.5l106.1,16.2L4075.7,622.7z M3863.6,590.4l-28.3-4.3l-77.4-4l1.4-26.8l78.7,4.1l29.5,4.4L3863.6,590.4z M3650.8,576.6
					l-107.3-5.4l1.4-26.8l107.2,5.4L3650.8,576.6z"/>
			</g>
		</g>
	</g>
	<g>
		<g>
			<g>
				<path class="st0" d="M5847.2,5403.3c-5.4,0-10.2-1.6-13.9-4.8c-3.8-3.8-5.9-8.6-6.5-14c0-5.3,1.7-10.7,5.4-15l15-16.1
					c2.7-3.2,5.3-5.9,8.1-9.1c4.7-4.8,9.6-10.7,15.5-17.2c6.5-8,19.8-9.1,28.4-2.1c8.1,7,9.2,19.3,2.2,27.9
					c-6.5,7.5-12.3,14-17.2,19.3c-2.7,2.7-4.8,5.4-6.9,8l-15.6,16.6C5858,5401.1,5852.5,5403.3,5847.2,5403.3z M6128.5,5016.3
					L6128.5,5016.3c-3.8,0-7.6-0.5-10.8-2.7c-4.2-2.7-7.4-7-9.2-12.3c-1-5.4-0.4-10.8,2.8-15.6c5.4-9.1,18.2-12.4,27.4-6.4
					c9.7,5.4,12.3,17.7,7,27.4c0,0.5-0.6,0.5-0.6,0.5C6141.4,5013.1,6134.9,5016.3,6128.5,5016.3z M6361.4,4559
					c-2.2,0-4.8-0.5-7-1.1c-4.8-2.1-9.2-5.9-11.3-10.7c-2.2-4.8-2.7-10.2-1.1-15c2.1-5.4,3.7-10.8,6-17.1l64.9-177.7
					c10.8-26.3,17.7-53.6,25.3-82.6l0.5-3.2c7-27.9,14.5-55.3,21.4-82.1l1.1-5.4c5.4-20.9,10.8-41.8,16.2-62.3
					c9.1-35.4,18.2-69.2,24.6-101.4c5.3-36.5,10.7-72,16.1-105.2l8.1-54.7c6.9-43.5,12.8-83.8,18.2-119.1
					c2.1-23.6,3.2-46.2,3.7-65.5c0.5-11.3,1.1-22,1.6-32.2c3.3-55.3,4.9-86.9,4.9-86.9c0.5-10.7,9.1-18.8,19.8-18.8h1.1
					c11.3,0.5,19.4,9.7,18.7,20.9c0,0-1.6,33.3-4.2,86.9c-0.6,9.7-1.1,19.8-1.6,30.6c-0.6,20.4-1.7,44-3.8,69.8l-0.6,1.1
					c-3.8,26.3-8.1,54.2-12.9,84.2l-29.6,195.9c-7,35.4-16.6,70.3-26.2,107.4c-4.9,19.3-10.2,39.2-15,59.5
					c-4.3,15.6-8.1,31.1-12.3,46.7l-11.3,44c-6.9,28.4-14.5,58-26.3,86.9c-15.5,42.4-31.2,85.4-46.7,127.7l-17.7,48.9
					c-2.2,5.4-3.8,11.3-5.9,17.2C6377.5,4553.6,6370,4559,6361.4,4559z"/>
			</g>
			<g>
				<path class="st0" d="M3544.7,6460.6c-272.1,0-542.6-36-804.4-107.4c-4.9-1.1-9.1-4.3-11.8-9.1c-2.8-4.8-3.7-10.2-2.2-15.6
					c2.8-10.2,14-16.7,24.7-13.9c257.7,69.8,525,105.7,792.7,105.7h4.4c63.3,0,127.7-2.2,192.1-6.5l3.8-0.5
					c6.5-0.5,12.9-0.5,19.3-1.1c11.8-0.5,20.9,7.5,21.5,18.8c0.5,5.4-1.1,10.2-4.9,14.5c-3.2,3.8-8.5,6.5-13.9,7
					c-6.9,0.5-14.5,0.5-21.9,1.1h-1.1C3677.9,6458.5,3611.3,6460.6,3544.7,6460.6z M3858.2,6444.5c-10.7,0-19.4-8.1-20.4-18.3
					c-1.1-10.7,7-20.9,18.3-22h0.5c10.2-1.1,20.3,7,21.4,17.7c1.1,10.8-7,20.4-17.1,22C3859.8,6444.5,3858.7,6444.5,3858.2,6444.5z
					 M4272,6372c-9.2,0-17.3-6.4-19.4-15.1c-1.6-5.4-0.5-10.7,2.1-15.5c2.8-4.3,7-7.5,12.4-9.1c10.8-2.7,22.1,4.3,24.8,15
					c2.6,10.7-4.4,21.5-15,24.2h-0.6C4274.6,6372,4273.6,6372,4272,6372z M4758.7,6207.8c-8,0-15-4.8-18.2-12.4
					c-2.2-4.8-2.2-10.2-0.6-15c2.1-4.8,6-9.1,10.8-11.3c15-6.4,29.5-12.8,44-19.3c276.3-119.7,479.8-273.2,628.4-385.4l28-21h0.5
					c46.1-39.6,85.4-75.6,117-104.6c11.3-10.7,21.9-20.4,31.7-29c0,0,0,0,0.5-0.5c7.6-6.4,20.9-5.9,27.9,2.1
					c7.6,8.1,6.5,20.9-1.6,28.5c-9.7,8.6-19.8,18.2-31.1,28.4c-32.2,29.5-71.9,66.1-119.7,106.8l-0.5,0.5
					c-10.2,7.5-19.8,15-30.1,22.5c-149.7,112.7-354.8,267.3-634.4,388c-15,7-29.6,13.4-44.5,19.8
					C4764.2,6207.2,4761.5,6207.8,4758.7,6207.8z M2263.1,6177.7c-2.7,0-5.9-1.1-8.6-2.2c-4.8-2.1-8.6-6.4-10.2-11.3
					c-1.6-5.4-1.6-10.7,0.6-15.5c4.9-9.7,17.1-14,26.8-9.7c4.8,2.1,8.6,6.4,10.2,11.3c2.1,5.4,1.6,10.8-0.6,15.6
					C2278.1,6172.9,2271.1,6177.7,2263.1,6177.7z M1895.3,5973.8c-4.3,0-8-1.1-11.2-3.3c-9.2-5.9-11.8-18.2-6-27.9
					c6-8.6,18.8-11.8,27.9-5.9c9.2,5.9,11.8,18.8,6,27.9C1908.4,5970.5,1901.9,5973.8,1895.3,5973.8z M1817.5,5921.7
					c-4.3,0-8-1.1-11.8-3.3c-136.3-93.9-264-199.1-380.4-311.3c-129.4-123.4-249.1-261.3-355.9-409.5c-3.1-4.3-4.8-9.6-3.7-15
					c1.1-5.4,3.7-10.2,8.1-12.9c8.6-6.4,21.9-4.3,28.4,4.3c105.3,146,223.3,281.8,351.1,404.2c114.3,110.5,241,214.1,375.7,307
					c4.2,3.2,7.5,7.5,8.1,12.9c1.1,5.3,0,10.7-3.3,15C1829.9,5918.5,1824,5921.7,1817.5,5921.7z M5683,5582L5683,5582
					c-5.4,0-11.3-2.2-15-6.4c-7.6-8-6.5-21,1.6-28.4c7.5-7,20.9-6.5,28.5,1.6c6.9,8,6.4,20.4-1.1,27.9c0,0,0,0.5-0.5,0.5
					C5692.7,5580.4,5687.8,5582,5683,5582z M820.9,4765.6c-7.5,0-14.5-4.3-17.7-11.3c-4.9-10.2-0.5-22,9.1-26.8
					c9.7-4.8,22.1-0.6,26.9,9.1c4.9,10.2,0.5,22-9.1,26.8C827.4,4765.1,824.1,4765.6,820.9,4765.6z M661,4377.1
					c-8.6,0-16.1-5.4-18.7-13.4c-2.2-5.3-1.7-10.7,0.5-15.6c2.1-4.8,6.5-8.6,11.3-10.2c10.2-3.7,22.1,2.1,25.8,12.3
					c0,0,0,0.5,0.5,0.5c1.1,4.8,1.1,10.2-1.1,14.5c-2.7,4.8-6.4,8.6-11.8,10.7C665.3,4376.5,663.1,4377.1,661,4377.1z M633.1,4288
					c-9.3,0-17.2-6.4-19.4-15.5c-8-30.6-15.5-60.1-23.1-88.6l-16.1-61.7c-2.2-8.1-3.8-16.1-6-24.1c-11.8-45.7-23-88.6-27.9-129.9
					L508,3752.9c-4.8-28.4-6.4-48.3-6.4-59.6l-0.5-8.6c0-6.5-0.7-9.6-0.7-11.2l0,0c0-5.4,1.7-10.2,5.4-14.5
					c3.2-3.7,8.6-6.4,13.9-6.4c11.3-0.5,20.4,8.1,20.9,18.8c0,0,0.5,6.9,1.2,20.4c0,11.3,0.9,29.6,5.9,54.3
					c6.4,40.8,15,97.1,25.6,168l7.6,48.9c3.8,38.6,15,82.1,27.4,128.3l13.4,52c9.7,37.6,19.9,77.3,30.6,119.2c0,0,0,0,0,0.5
					c2.8,10.7-3.7,21.5-14.4,24.2C636.3,4287.4,634.7,4288,633.1,4288z"/>
			</g>
		</g>
		<g>
			<g>
				<path class="st0" d="M513.9,3296.1c-0.5,0-0.5,0-1,0c-11.3-0.5-19.8-10.2-18.8-21l0,0c0,0,0-2.7,0-8l4.4-78.9
					c0.4-9.7,1-19.9,1.5-30.6c0.5-21,1.7-44.1,3.8-69.8l0.5-1.1c5.9-38.1,12.3-81,19.3-128.3c3.7-25.2,8.1-51.5,12.4-78.9l10.7-73
					c6.9-35.4,16.6-70.8,26.2-107.9c4.9-19.3,10.2-39.2,15-59c7.6-29,15-58,22.6-87.5l1-3.7c7-28.4,14.5-58,26.4-87l64.4-176
					c1.6-5.9,3.7-11.3,6-17.2c3.1-10.2,15.5-15.5,25.7-12.4c10.2,3.8,15.5,15,12.3,25.8c-2.2,5.4-3.8,10.2-6,16.1l-3.2,9.6
					c-20.4,56.4-41.3,112.7-61.7,169.1c-11.3,26.3-18.2,54.8-25.8,84.3v1.6c-4.2,15.6-8,31.2-12.3,46.7l-10.2,40.2
					c-5.4,21.5-10.8,41.9-16.1,62.3c-9.2,35.9-18.2,69.2-24.7,102L562.2,2973c-6.5,43.5-12.9,83.8-18.3,119.7
					c-2,23.6-3.2,46.1-3.7,66c-0.6,11.3-1.1,21.4-1.6,31.7c-3.3,54.8-4.3,85.9-4.3,86.4C533.3,3287.5,524.6,3296.1,513.9,3296.1z
					 M959.9,1837.3c-3.7,0-6.9-1.1-10.2-2.7c-4.9-2.7-8.1-7.6-9.2-12.4c-1.6-5.4-0.5-10.7,2.2-15.6c6-9.2,18.7-12.3,27.9-6.4
					c4.3,2.6,7.6,7,9.2,12.3c1.1,5.4,0.6,10.8-2.7,15.1C973.3,1834.1,966.9,1837.3,959.9,1837.3z M1202.5,1493.9
					c-4.9,0-9.7-1.7-13.4-4.9c-8.1-7-9.2-19.8-2.2-28.4c5.9-7,11.3-12.9,16.1-18.3c3.2-3.2,5.9-5.9,8-8.6l15.5-16.7
					c7-8,20.5-8.6,28.5-1.6c8.1,7.5,8.6,20.4,1.1,28.4l-15,16.7c-2.7,2.7-5.4,5.9-8.1,9.1c-4.9,4.9-10.2,10.8-15.5,17.2
					C1213.8,1491.1,1208.4,1493.9,1202.5,1493.9z"/>
			</g>
			<g>
				<path class="st0" d="M6568.1,3161.4c-11.3,0-19.9-8-20.4-18.8c0-0.6-0.6-7.5-1.1-20.9c0-10.2-1.1-27.9-5.9-54.2
					c-7.6-49.9-18.8-122.9-33.3-216.3c-3.7-38.1-15-80.5-26.2-125.6c-2.2-7.5-4.4-15.5-6.5-23.6c-12.3-47.2-25.2-97.6-38.6-150.8
					c-1.7-5.3-0.5-10.7,2.2-15c2.7-4.8,6.9-8.1,12.3-9.7c10.2-2.7,21.5,4.3,24.7,14.5l2.7,11.3c12.3,49.4,24.7,96.1,36,139.5
					c2.1,8.6,4.2,17.2,6.4,25.8c11.8,45.1,23.1,87.5,27.4,128.3l32.7,215.2c4.9,27.4,6.5,47.3,6.5,59.6l0.6,9.2
					c0,5.9,0.5,9.1,0.5,10.2c0,0,0,0,0,0.5c0.6,10.7-8,20.4-19.4,20.9H6568.1z M6427.4,2477.1c-8.6,0-16.1-5.4-18.8-13.4
					c-2.1-4.8-1.7-10.8,0.6-15.6c2.7-4.8,6.4-8.6,11.8-10.2c9.7-3.8,22,2.2,25.2,12.3c3.8,10.2-1.6,22-11.8,25.8
					C6432.3,2476.6,6429.5,2477.1,6427.4,2477.1z M6266.9,2088.5c-7.4,0-14.5-4.3-17.7-11.2c-2.7-4.9-2.7-10.7-1.1-15.6
					c1.6-5.4,5.4-9.2,10.2-11.3c9.7-5.4,22-0.5,26.8,9.1c2.8,4.8,2.8,10.2,1.2,15.6c-1.6,4.8-5.4,9.1-10.2,11.3
					C6273.4,2087.4,6270.2,2088.5,6266.9,2088.5z M6002.9,1647.9c-6.5,0-12.4-3.2-16.2-8.6c-105.7-146-223.7-281.8-351.4-403.6
					c-113.8-110.6-240.5-213.6-375.8-307c-9.1-6.4-11.2-18.8-5.4-27.9c6.5-9.1,19.3-11.8,28.5-5.4
					c136.9,94.5,264.6,199.1,380.6,311.3c129.3,123.4,248.9,261.4,355.9,409.5c6.4,8.6,4.8,21.5-4.4,27.9
					C6010.9,1646.8,6007.2,1647.9,6002.9,1647.9z M1405.4,1271.6c-5.9,0-11.3-2.2-15-6.4c-3.2-3.7-5.4-9.1-5.4-14.5
					c0.6-5.3,2.7-10.2,7-13.9c0,0,0,0,0.4-0.6c7.6-6.4,21-5.9,27.9,2.1c7.6,8.1,6.5,20.9-1.5,28.5
					C1415,1270.1,1410.2,1271.6,1405.4,1271.6z M1474.6,1208.9c-5.3,0-11.2-2.1-15-6.5c-7.5-8.6-7-20.9,1.6-28.4
					c10.2-9.1,21-19.3,33.3-30.6c31.6-29,70.8-64.9,117.5-104.6l0.7-0.5c9.6-7.5,19.2-14.5,29.5-22
					C1791.8,902.9,1996.9,748.4,2277,627c14.5-6.4,29.5-12.9,44.5-19.4c9.7-4.3,22.1,0.6,26.3,10.2c4.3,10.2,0,22-10.2,26.3
					c-15,6.5-29.6,12.9-44,19.9c-276.4,119.7-479.8,272.7-628,384.9l-27.9,20.9c-46.6,39.7-86.4,76.2-118,105.2
					c-11.3,10.2-22,19.8-31.7,28.5c0,0.5,0,0.5,0,0.5C1484.3,1207.2,1479.4,1208.9,1474.6,1208.9z M5193,879.8
					c-3.7,0-7.6-1.1-10.8-3.2c-9.1-5.9-11.8-18.2-6-27.4c6-9.1,18.9-11.8,28-6.4c9.2,5.9,11.8,18.8,6,27.9
					C5206.4,876.6,5199.9,879.8,5193,879.8z M4825.3,676.4c-3.2,0-5.9-0.5-8.6-1.6c-4.8-2.7-8.5-6.4-10.7-11.8
					c-1.6-4.9-1.6-10.2,1.1-15.1c4.3-9.6,16.6-14.5,26.9-9.6c0,0,0,0,0.5,0c4.3,2.2,8,6.4,9.6,11.3c1.7,4.8,1.7,10.2-0.5,15
					C4840.4,672.1,4832.8,676.4,4825.3,676.4z M4342.8,499.8c-1.6,0-3.7-0.5-5.3-0.5c-320.4-87-653.8-121.9-989.2-99.3
					c-7.5,0.5-15.5,1.1-23,1.6c-11.3,1.1-21-7.5-21.5-18.8c-1-10.7,7.6-21,18.3-21.4c4.3,0,8-0.6,11.8-0.6c4.3-0.5,8-0.5,11.7-1.1
					c337.1-22.6,677.9,12.4,1002.7,100.4c10.7,3.2,17.1,14,13.9,24.7C4360,494,4351.9,499.8,4342.8,499.8z M2816.4,481.6
					c-9.7,0-17.7-5.9-19.9-15.1c-2.7-10.7,4.3-22,15-24.2c10.8-3.2,21.5,3.8,24.2,14.5c2.6,10.8-3.8,21.5-14.5,24.2
					C2819.6,481.6,2818,481.6,2816.4,481.6z M3230.8,409.7c-10.8,0-19.4-8-20.4-18.2c-1.1-10.8,7-21,18.2-22
					c10.8-1.6,20.9,7,22,18.3c1.1,10.8-7,20.9-18.2,22C3231.8,409.7,3231.2,409.7,3230.8,409.7z"/>
			</g>
		</g>
	</g>
</g>
</svg>
