<?xml version="1.0" encoding="utf-8"?>
<!-- Generator: Adobe Illustrator 22.1.0, SVG Export Plug-In . SVG Version: 6.00 Build 0)  -->
<svg version="1.1" id="Camada_1" xmlns="http://www.w3.org/2000/svg" xmlns:xlink="http://www.w3.org/1999/xlink" x="0px" y="0px"
	 viewBox="0 0 100 99.6" style="enable-background:new 0 0 100 99.6;" xml:space="preserve">
<g>
	<path d="M74.7,13.3c-0.4-0.5-1-0.8-1.6-0.8H26.9c-0.6,0-1.2,0.3-1.6,0.8L5.4,38.2c-0.6,0.8-0.6,1.9,0.1,2.6l43,45.9
		c0.4,0.4,0.9,0.6,1.5,0.6s1.1-0.2,1.5-0.6l43-45.9c0.7-0.7,0.7-1.8,0.1-2.6L74.7,13.3z M28.4,16.6h17.7L28.4,35.7V16.6z M71.7,35.7
		l-2.2-2.4c-0.6-0.6-1.5-0.6-2.1-0.1c-0.6,0.6-0.6,1.5-0.1,2.1l2.4,2.6H51.5V18.4l13,14c0.3,0.3,0.7,0.5,1.1,0.5
		c0.4,0,0.7-0.1,1-0.4c0.6-0.6,0.6-1.5,0.1-2.1L53.9,16.6h17.8L71.7,35.7z M70.8,41L51.5,79.2V41H70.8z M48.5,38H30.3l18.2-19.6V38z
		 M25.9,41l12.3,24.3c0.3,0.5,0.8,0.8,1.3,0.8c0.2,0,0.5-0.1,0.7-0.2c0.7-0.4,1-1.3,0.7-2L29.3,41h19.2v38.1l-5.7-11.4
		c-0.4-0.7-1.3-1-2-0.7c-0.7,0.4-1,1.3-0.7,2l3.1,6.1L11.1,41H25.9z M74.1,41h14.7L57,75.1L74.1,41z M74.7,38l0-18.3L89.3,38H74.7z
		 M25.4,19.7V38H10.8L25.4,19.7z"/>
</g>
</svg>
