<svg xmlns="http://www.w3.org/2000/svg" xmlns:xlink="http://www.w3.org/1999/xlink" version="1.1" x="0px" y="0px" viewBox="0 0 100 125" style="enable-background:new 0 0 100 100;" xml:space="preserve"><g><path d="M74.729,13.328c-0.379-0.477-0.955-0.754-1.564-0.754H26.869c-0.608,0-1.185,0.277-1.563,0.753L5.437,38.248   c-0.619,0.776-0.575,1.889,0.104,2.613l43,45.932c0.378,0.404,0.906,0.633,1.46,0.633s1.082-0.229,1.46-0.633l43-45.932   c0.678-0.724,0.723-1.836,0.104-2.612L74.729,13.328z M28.369,16.574h17.728L28.369,35.673V16.574z M71.701,35.687l-2.202-2.366   c-0.563-0.607-1.514-0.64-2.12-0.076c-0.606,0.565-0.64,1.514-0.075,2.12l2.447,2.629H51.5V18.386L64.535,32.39   c0.295,0.317,0.696,0.478,1.098,0.478c0.366,0,0.733-0.133,1.022-0.402c0.605-0.564,0.64-1.514,0.075-2.12l-12.82-13.772h17.816   L71.701,35.687z M70.761,40.994L51.5,79.242V40.994H70.761z M48.5,37.994H30.308L48.5,18.395V37.994z M25.945,40.994l12.261,24.349   c0.264,0.523,0.792,0.826,1.341,0.826c0.227,0,0.457-0.052,0.674-0.161c0.739-0.373,1.037-1.274,0.665-2.015L29.304,40.994H48.5   v38.118l-5.729-11.377c-0.373-0.739-1.273-1.038-2.015-0.665c-0.74,0.373-1.037,1.275-0.665,2.015l3.085,6.125L11.144,40.994   H25.945z M74.121,40.994h14.735l-31.89,34.065L74.121,40.994z M74.698,37.994l0.024-18.251L89.25,37.994H74.698z M25.369,19.663   v18.331H10.754L25.369,19.663z"/></g><text x="0" y="115" fill="#000000" font-size="5px" font-weight="bold" font-family="'Helvetica Neue', Helvetica, Arial-Unicode, Arial, Sans-serif">Created by Maxim Kulikov</text><text x="0" y="120" fill="#000000" font-size="5px" font-weight="bold" font-family="'Helvetica Neue', Helvetica, Arial-Unicode, Arial, Sans-serif">from the Noun Project</text></svg>