<svg xmlns:dc="http://purl.org/dc/elements/1.1/" xmlns:cc="http://creativecommons.org/ns#" xmlns:rdf="http://www.w3.org/1999/02/22-rdf-syntax-ns#" xmlns:svg="http://www.w3.org/2000/svg" xmlns="http://www.w3.org/2000/svg" xmlns:sodipodi="http://sodipodi.sourceforge.net/DTD/sodipodi-0.dtd" xmlns:inkscape="http://www.inkscape.org/namespaces/inkscape" version="1.1" x="0px" y="0px" viewBox="0 0 100 125"><g transform="translate(0,-952.36218)"><path d="m 30,956.36217 c -1.0999,0.0139 -1.9754,1.09908 -2,2 l 0,24 c 0,0.78748 0.52,1.5484 1.25,1.84375 l 18.3438,7.375 C 47.2237,992.0798 47,992.69334 47,993.36217 c 0,0.40386 0.1053,0.77333 0.25,1.125 C 33.652,995.87239 23,1007.4047 23,1021.3622 c 0,14.888 12.112,27 27,27 14.888,0 27,-12.112 27,-27 0,-13.9575 -10.652,-25.48981 -24.25,-26.87503 0.1447,-0.35167 0.25,-0.72114 0.25,-1.125 0,-0.6932 -0.2302,-1.33577 -0.625,-1.84375 l 18.375,-7.3125 c 0.73,-0.29535 1.2459,-1.05627 1.25,-1.84375 l 0,-24 c -1e-4,-1.04717 -0.9528,-1.9999 -2,-2 z m 2,4 9,0 0,24.21875 -9,-3.59375 z m 13,0 10,0 0,25.8125 -5.0625,2 L 45,986.20592 z m 14,0 9,0 0,20.625 -9,3.59375 z m -9,38.00002 c 12.7262,0 23,10.27381 23,23.00001 0,12.7262 -10.2738,23 -23,23 -12.7262,0 -23,-10.2738 -23,-23 0,-12.7262 10.2738,-23.00001 23,-23.00001 z m -0.2188,3.96871 c -0.66144,0.076 -1.27188,0.5151 -1.5624,1.125 l -4.5,9.2813 -10,1.4687 c -0.72416,0.1107 -1.36549,0.6644 -1.59127,1.374 -0.22577,0.7095 -0.0253,1.5412 0.49747,2.0635 l 7.2188,7.1875 -1.6876,10.1563 c -0.22324,1.1624 0.77476,2.4018 1.9376,2.4062 0.32629,0 0.65152,-0.09 0.9374,-0.25 l 8.9688,-4.8125 8.9688,4.8125 c 0.6548,0.3531 1.50558,0.2889 2.10217,-0.1586 0.59659,-0.4474 0.90936,-1.2559 0.77283,-1.9976 l -1.6876,-10.1563 7.2188,-7.1875 c 0.52275,-0.5223 0.72324,-1.354 0.49747,-2.0635 -0.22578,-0.7096 -0.86711,-1.2633 -1.59127,-1.374 l -10,-1.4687 -4.5,-9.2813 c -0.35445,-0.7437 -1.19322,-1.2155 -2,-1.125 z m 0.2188,6.5938 3.1562,6.5312 c 0.28705,0.5822 0.86641,1.0047 1.5,1.0938 l 7.0626,1.0625 -5.0938,5.0625 c -0.47404,0.455 -0.70457,1.1587 -0.5938,1.8125 l 1.25,7.1875 -6.375,-3.4063 c -0.56585,-0.3028 -1.27785,-0.3028 -1.8437,0 l -6.3125,3.4063 1.2188,-7.1875 c 0.11077,-0.6538 -0.11976,-1.3575 -0.5938,-1.8125 l -5.0938,-5.0625 7.0626,-1.0625 c 0.63359,-0.089 1.21295,-0.5116 1.5,-1.0938 z" style="text-indent:0;text-transform:none;direction:ltr;block-progression:tb;baseline-shift:baseline;color:#000000;enable-background:accumulate;" fill="#000000" fill-opacity="1" stroke="none" marker="none" visibility="visible" display="inline" overflow="visible"/></g><text x="0" y="115" fill="#000000" font-size="5px" font-weight="bold" font-family="'Helvetica Neue', Helvetica, Arial-Unicode, Arial, Sans-serif">Created by iconsphere</text><text x="0" y="120" fill="#000000" font-size="5px" font-weight="bold" font-family="'Helvetica Neue', Helvetica, Arial-Unicode, Arial, Sans-serif">from the Noun Project</text></svg>