<?xml version="1.0" encoding="utf-8"?>
<!-- Generator: Adobe Illustrator 22.1.0, SVG Export Plug-In . SVG Version: 6.00 Build 0)  -->
<svg version="1.1"
	 id="Camada_1" xmlns:cc="http://creativecommons.org/ns#" xmlns:dc="http://purl.org/dc/elements/1.1/" xmlns:inkscape="http://www.inkscape.org/namespaces/inkscape" xmlns:rdf="http://www.w3.org/1999/02/22-rdf-syntax-ns#" xmlns:sodipodi="http://sodipodi.sourceforge.net/DTD/sodipodi-0.dtd" xmlns:svg="http://www.w3.org/2000/svg"
	 xmlns="http://www.w3.org/2000/svg" xmlns:xlink="http://www.w3.org/1999/xlink" x="0px" y="0px" viewBox="0 0 100 104.6"
	 style="enable-background:new 0 0 100 104.6;" xml:space="preserve">
<g transform="translate(0,-952.36218)">
	<path d="M30,956.4c-1.1,0-2,1.1-2,2v24c0,0.8,0.5,1.5,1.3,1.8l18.3,7.4c-0.4,0.5-0.6,1.1-0.6,1.8c0,0.4,0.1,0.8,0.3,1.1
		c-13.6,1.4-24.3,12.9-24.3,26.9c0,14.9,12.1,27,27,27s27-12.1,27-27c0-14-10.7-25.5-24.3-26.9c0.1-0.4,0.3-0.7,0.3-1.1
		c0-0.7-0.2-1.3-0.6-1.8l18.4-7.3c0.7-0.3,1.2-1.1,1.3-1.8v-24c0-1-1-2-2-2H30z M32,960.4h9v24.2l-9-3.6V960.4z M45,960.4h10v25.8
		l-5.1,2l-4.9-2V960.4z M59,960.4h9V981l-9,3.6V960.4z M50,998.4c12.7,0,23,10.3,23,23s-10.3,23-23,23s-23-10.3-23-23
		S37.3,998.4,50,998.4z M49.8,1002.3c-0.7,0.1-1.3,0.5-1.6,1.1l-4.5,9.3l-10,1.5c-0.7,0.1-1.4,0.7-1.6,1.4c-0.2,0.7,0,1.5,0.5,2.1
		l7.2,7.2l-1.7,10.2c-0.2,1.2,0.8,2.4,1.9,2.4c0.3,0,0.7-0.1,0.9-0.3l9-4.8l9,4.8c0.7,0.4,1.5,0.3,2.1-0.2c0.6-0.4,0.9-1.3,0.8-2
		l-1.7-10.2l7.2-7.2c0.5-0.5,0.7-1.4,0.5-2.1c-0.2-0.7-0.9-1.3-1.6-1.4l-10-1.5l-4.5-9.3C51.4,1002.7,50.6,1002.2,49.8,1002.3
		L49.8,1002.3z M50,1008.9l3.2,6.5c0.3,0.6,0.9,1,1.5,1.1l7.1,1.1l-5.1,5.1c-0.5,0.5-0.7,1.2-0.6,1.8l1.3,7.2l-6.4-3.4
		c-0.6-0.3-1.3-0.3-1.8,0l-6.3,3.4l1.2-7.2c0.1-0.7-0.1-1.4-0.6-1.8l-5.1-5.1l7.1-1.1c0.6-0.1,1.2-0.5,1.5-1.1L50,1008.9z"/>
</g>
</svg>
