<?xml version="1.0" encoding="utf-8"?>
<!-- Generator: Adobe Illustrator 22.1.0, SVG Export Plug-In . SVG Version: 6.00 Build 0)  -->
<svg version="1.1" id="Camada_1" xmlns="http://www.w3.org/2000/svg" xmlns:xlink="http://www.w3.org/1999/xlink" x="0px" y="0px"
	 viewBox="0 0 100 125" style="enable-background:new 0 0 100 125;" xml:space="preserve">
<style type="text/css">
	.st0{font-family:'Helvetica-Bold';}
	.st1{font-size:5px;}
</style>
<text transform="matrix(1 0 0 1 0 115.0002)" class="st0 st1">Created by Agarunov Oktay-Abraham</text>
<text transform="matrix(1 0 0 1 0 120.0002)" class="st0 st1">from the Noun Project</text>
<path d="M87.4,2.1H12.6C6.9,2.1,2.2,6.8,2.2,12.5v74.7c0,5.7,4.7,10.4,10.4,10.4h74.7c5.7,0,10.4-4.7,10.4-10.4V12.5
	C97.8,6.8,93.1,2.1,87.4,2.1z M72.9,37.3c-4.8,0-8.8,3.9-8.8,8.8c0,0.5,0,0.9,0.1,1.4H52.2V28.3l-3.3,2.2c-0.7,0.5-1.5,0.7-2.4,0.7
	c-2.4,0-4.4-2-4.4-4.4c0-2.4,2-4.4,4.4-4.4c0.9,0,1.7,0.2,2.4,0.7l3.3,2.2V5.8h33.9c4.3,0,7.8,3.5,7.8,7.8v33.9H81.5
	c0.1-0.5,0.1-0.9,0.1-1.4C81.7,41.2,77.7,37.3,72.9,37.3z M47.8,18.1C47.4,18,46.9,18,46.4,18c-4.8,0-8.8,3.9-8.8,8.8
	c0,4.8,3.9,8.8,8.8,8.8c0.5,0,0.9,0,1.4-0.1v12.1H28.7l2.1,3.3c0.5,0.7,0.7,1.5,0.7,2.4c0,2.4-2,4.4-4.4,4.4c-2.4,0-4.4-2-4.4-4.4
	c0-0.8,0.2-1.7,0.7-2.4l2.2-3.3H6.2V13.5c0-4.3,3.5-7.8,7.8-7.8h33.9V18.1z M6.2,51.8h12.3c-0.1,0.5-0.1,0.9-0.1,1.4
	c0,4.8,3.9,8.8,8.7,8.8c4.8,0,8.8-3.9,8.8-8.8c0-0.5,0-0.9-0.1-1.4h12.1v19.2l3.3-2.1c0.7-0.5,1.5-0.7,2.4-0.7
	c1.2,0,2.3,0.5,3.1,1.3c0.8,0.8,1.3,1.9,1.3,3.1c0,2.4-2,4.4-4.4,4.4c-0.8,0-1.7-0.2-2.4-0.7l-3.3-2.1v19.4H13.9
	c-4.3,0-7.8-3.5-7.8-7.8V51.8z M52.2,81.2c0.5,0.1,0.9,0.1,1.4,0.1c4.8,0,8.8-3.9,8.8-8.7c0-4.8-3.9-8.8-8.8-8.8
	c-0.5,0-0.9,0-1.4,0.1V51.8h19.2l-2.1-3.3c-0.5-0.7-0.7-1.6-0.7-2.4c0-2.4,2-4.4,4.4-4.4c2.4,0,4.4,2,4.4,4.4c0,0.8-0.2,1.7-0.7,2.4
	l-2.2,3.3h19.4v33.9c0,4.3-3.5,7.8-7.8,7.8H52.2V81.2z"/>
</svg>
